<svg width="300" height="480" viewBox="0 0 300 480" fill="none" xmlns="http://www.w3.org/2000/svg">
<rect width="300" height="480" fill="#97CBDB"/>
<path d="M263.379 229.046H242.834V212.224H244.42C248.34 212.224 251.529 209.021 251.529 205.083V194.521C251.529 190.583 248.34 187.379 244.42 187.379H242.834V174.047H258.539C267.221 174.047 274.251 167.321 274.545 158.738C274.552 158.532 274.556 158.325 274.556 158.117C274.556 149.523 268.432 142.337 260.334 140.717C259.025 132.222 251.686 125.697 242.857 125.697C241.151 125.697 239.452 125.947 237.825 126.43C233.489 119.71 226.198 115.43 218.086 115.03C211.228 114.696 204.683 117.139 199.661 121.917C194.657 126.679 191.881 133.08 191.843 139.942C191.841 140.325 191.848 140.708 191.863 141.091C187.296 142.435 183.509 145.581 181.286 149.681H117.831V148.087C117.831 144.149 114.642 140.946 110.723 140.946H100.21C96.2902 140.946 93.1021 144.149 93.1021 148.087V158.649C93.1021 162.587 96.2907 165.791 100.21 165.791H101.796V179.36H95.4554C93.4285 179.36 91.7852 181.011 91.7852 183.047C91.7852 185.084 93.4285 186.735 95.4554 186.735H140.103V203.777H70.8294V186.735H80.7741C82.8015 186.735 84.4443 185.084 84.4443 183.047C84.4443 181.011 82.8015 179.36 80.7741 179.36H68.3679C65.6779 179.36 63.489 181.559 63.489 184.261V203.777H38.8474C31.2119 203.778 25 210.019 25 217.69V252.821C25 260.492 31.2119 266.733 38.8474 266.733H63.489V292.421C63.489 295.123 65.6779 297.322 68.3679 297.322H76.0778C78.1052 297.322 79.748 295.671 79.748 293.634C79.748 291.598 78.1052 289.947 76.0778 289.947H70.8294V246.705H140.103V289.947H90.7585C88.7311 289.947 87.0883 291.598 87.0883 293.634C87.0883 295.671 88.7311 297.322 90.7585 297.322H142.565C145.255 297.322 147.444 295.123 147.444 292.421V266.733H172.085C179.721 266.733 185.933 260.492 185.933 252.821V217.69C185.933 210.019 179.721 203.778 172.085 203.778H147.444V184.263C147.444 181.56 145.255 179.362 142.565 179.362H109.136V165.792H110.722C114.642 165.792 117.831 162.588 117.831 158.651V157.057H179.182C179.161 157.408 179.147 157.761 179.147 158.117C179.147 158.325 179.151 158.532 179.158 158.734C179.452 167.321 186.482 174.047 195.164 174.047H235.494V187.379H233.907C229.987 187.379 226.799 190.583 226.799 194.521V205.083C226.799 209.021 229.988 212.224 233.907 212.224H235.494V229.047H209.077C202.668 229.047 197.455 234.284 197.455 240.722V353.324C197.455 359.762 202.668 365 209.077 365H263.379C269.787 365 275 359.762 275 353.324V240.722C275 234.284 269.787 229.046 263.379 229.046V229.046ZM63.489 259.358H38.8474C35.2594 259.358 32.3404 256.426 32.3404 252.821V246.705H63.489V259.358ZM172.085 259.358H147.444V246.705H178.592V252.821C178.592 256.425 175.673 259.358 172.085 259.358ZM178.592 217.69V239.331H32.3404V217.69C32.3404 214.085 35.2594 211.153 38.8474 211.153H172.085C175.673 211.152 178.592 214.085 178.592 217.69V217.69ZM110.491 158.417H100.442V148.321H110.491V158.417ZM186.494 158.477C186.49 158.358 186.488 158.238 186.488 158.117C186.488 152.679 190.725 148.137 196.134 147.778C197.182 147.708 198.151 147.19 198.795 146.354C199.438 145.518 199.693 144.446 199.496 143.408C199.283 142.283 199.178 141.13 199.184 139.983C199.211 135.151 201.173 130.638 204.71 127.272C208.048 124.096 212.329 122.375 216.849 122.375C217.141 122.375 217.434 122.383 217.728 122.397C224.291 122.72 230.094 126.64 232.87 132.629C233.297 133.55 234.084 134.253 235.044 134.572C236.004 134.892 237.053 134.798 237.942 134.315C239.44 133.502 241.139 133.072 242.858 133.072C248.561 133.072 253.202 137.723 253.202 143.438C253.202 143.594 253.196 143.748 253.189 143.902C253.145 144.906 253.512 145.886 254.204 146.613C254.897 147.34 255.855 147.751 256.856 147.751H256.894C262.587 147.763 267.216 152.409 267.216 158.117C267.216 158.237 267.214 158.357 267.209 158.48C267.055 162.998 263.165 166.673 258.539 166.673H195.164C190.538 166.673 186.649 162.998 186.494 158.477V158.477ZM234.139 194.754H244.189V204.85H234.139V194.754ZM204.796 252.964H267.66V341.082H204.796V252.964ZM209.077 236.421H263.379C265.739 236.421 267.66 238.35 267.66 240.722V245.59H204.796V240.722C204.796 238.35 206.716 236.421 209.077 236.421ZM263.379 357.625H209.077C206.716 357.625 204.796 355.695 204.796 353.324V348.456H267.66V353.324C267.66 355.695 265.739 357.625 263.379 357.625V357.625Z" fill="black"/>
<path d="M113.776 221.346H97.1569C95.1295 221.346 93.4867 222.997 93.4867 225.033C93.4867 227.069 95.1295 228.72 97.1569 228.72H113.776C115.803 228.72 117.446 227.069 117.446 225.033C117.446 222.997 115.803 221.346 113.776 221.346Z" fill="black"/>
<path d="M246.887 291.768H225.568C221.649 291.768 218.46 294.972 218.46 298.91V320.328C218.46 324.266 221.649 327.469 225.568 327.469H246.887C250.807 327.469 253.995 324.265 253.995 320.328V298.91C253.995 294.972 250.807 291.768 246.887 291.768ZM246.655 320.095H225.8V299.143H246.655V320.095Z" fill="black"/>
<path d="M225.772 281.241C226.711 281.241 227.65 280.881 228.367 280.161L236.228 272.264L244.088 280.161C244.805 280.881 245.744 281.241 246.684 281.241C247.623 281.241 248.562 280.881 249.279 280.161C250.713 278.721 250.713 276.386 249.279 274.946L238.824 264.442C237.39 263.002 235.067 263.001 233.633 264.442L223.177 274.946C221.744 276.386 221.744 278.721 223.177 280.161C223.893 280.881 224.832 281.241 225.772 281.241V281.241Z" fill="black"/>
<path d="M85.3012 264.69H125.632C127.66 264.69 129.302 263.039 129.302 261.002C129.302 258.966 127.66 257.315 125.632 257.315H85.3012C83.2738 257.315 81.631 258.966 81.631 261.002C81.631 263.039 83.2738 264.69 85.3012 264.69Z" fill="black"/>
<path d="M129.302 276.849C129.302 274.812 127.66 273.161 125.632 273.161H85.3012C83.2738 273.161 81.631 274.812 81.631 276.849C81.631 278.885 83.2738 280.536 85.3012 280.536H125.632C127.659 280.536 129.302 278.885 129.302 276.849Z" fill="black"/>
</svg>
