<svg width="300" height="480" viewBox="0 0 300 480" fill="none" xmlns="http://www.w3.org/2000/svg">
<rect width="300" height="480" fill="#B3E3B2"/>
<path d="M234.195 166.374C247.804 166.374 258.837 155.859 258.837 142.889C258.837 129.919 247.804 119.404 234.195 119.404C220.585 119.404 209.552 129.919 209.552 142.889C209.552 155.859 220.585 166.374 234.195 166.374Z" fill="#FF8086"/>
<path d="M211.606 340.374C216.142 340.374 219.82 336.869 219.82 332.546C219.82 328.223 216.142 324.718 211.606 324.718C207.069 324.718 203.392 328.223 203.392 332.546C203.392 336.869 207.069 340.374 211.606 340.374Z" fill="#FFE07D"/>
<path d="M133.572 211.564C138.108 211.564 141.786 208.059 141.786 203.736C141.786 199.413 138.108 195.908 133.572 195.908C129.035 195.908 125.358 199.413 125.358 203.736C125.358 208.059 129.035 211.564 133.572 211.564Z" fill="#FFE07D"/>
<path d="M105.01 313.153C109.546 313.153 113.223 309.649 113.223 305.325C113.223 301.002 109.546 297.497 105.01 297.497C100.473 297.497 96.7956 301.002 96.7956 305.325C96.7956 309.649 100.473 313.153 105.01 313.153Z" fill="#FFE07D"/>
<path d="M240.168 238.785C244.705 238.785 248.382 235.28 248.382 230.957C248.382 226.633 244.705 223.129 240.168 223.129C235.632 223.129 231.954 226.633 231.954 230.957C231.954 235.28 235.632 238.785 240.168 238.785Z" fill="#FFE07D"/>
<path d="M133.572 340.374C138.108 340.374 141.786 336.869 141.786 332.546C141.786 328.223 138.108 324.718 133.572 324.718C129.035 324.718 125.358 328.223 125.358 332.546C125.358 336.869 129.035 340.374 133.572 340.374Z" fill="#FFE07D"/>
<path d="M211.606 211.564C216.142 211.564 219.82 208.059 219.82 203.736C219.82 199.413 216.142 195.908 211.606 195.908C207.069 195.908 203.392 199.413 203.392 203.736C203.392 208.059 207.069 211.564 211.606 211.564Z" fill="#FFE07D"/>
<path d="M240.168 313.153C244.705 313.153 248.382 309.649 248.382 305.325C248.382 301.002 244.705 297.497 240.168 297.497C235.632 297.497 231.954 301.002 231.954 305.325C231.954 309.649 235.632 313.153 240.168 313.153Z" fill="#FFE07D"/>
<path d="M105.01 238.785C109.546 238.785 113.223 235.28 113.223 230.957C113.223 226.633 109.546 223.129 105.01 223.129C100.473 223.129 96.7956 226.633 96.7956 230.957C96.7956 235.28 100.473 238.785 105.01 238.785Z" fill="#FFE07D"/>
<path d="M94.5551 275.969C99.0916 275.969 102.769 272.464 102.769 268.141C102.769 263.817 99.0916 260.313 94.5551 260.313C90.0187 260.313 86.3412 263.817 86.3412 268.141C86.3412 272.464 90.0187 275.969 94.5551 275.969Z" fill="#FFE07D"/>
<path d="M250.623 275.969C255.159 275.969 258.836 272.464 258.836 268.141C258.836 263.817 255.159 260.313 250.623 260.313C246.086 260.313 242.409 263.817 242.409 268.141C242.409 272.464 246.086 275.969 250.623 275.969Z" fill="#FFE07D"/>
<path d="M172.589 319.025C202.076 319.025 225.981 296.243 225.981 268.141C225.981 240.039 202.076 217.257 172.589 217.257C143.102 217.257 119.197 240.039 119.197 268.141C119.197 296.243 143.102 319.025 172.589 319.025Z" fill="#FF8086"/>
<path d="M180.803 311.196C151.316 311.196 127.411 288.415 127.411 260.313C127.411 248.257 131.833 237.198 139.186 228.478C127.009 237.804 119.197 252.094 119.197 268.141C119.197 296.243 143.101 319.024 172.589 319.024C189.426 319.024 204.421 311.58 214.206 299.975C205.058 306.982 193.453 311.196 180.803 311.196Z" fill="#E5646E"/>
<path d="M172.589 350.337C177.126 350.337 180.803 346.833 180.803 342.509C180.803 338.186 177.126 334.681 172.589 334.681C168.053 334.681 164.375 338.186 164.375 342.509C164.375 346.833 168.053 350.337 172.589 350.337Z" fill="#FFE07D"/>
<path d="M172.589 201.601C177.126 201.601 180.803 198.096 180.803 193.773C180.803 189.449 177.126 185.945 172.589 185.945C168.053 185.945 164.375 189.449 164.375 193.773C164.375 198.096 168.053 201.601 172.589 201.601Z" fill="#FFE07D"/>
<path d="M193.124 256.399C197.66 256.399 201.338 252.894 201.338 248.571C201.338 244.247 197.66 240.742 193.124 240.742C188.588 240.742 184.91 244.247 184.91 248.571C184.91 252.894 188.588 256.399 193.124 256.399Z" fill="#FFE07D"/>
<path d="M172.589 275.969C177.126 275.969 180.803 272.464 180.803 268.141C180.803 263.817 177.126 260.313 172.589 260.313C168.053 260.313 164.375 263.817 164.375 268.141C164.375 272.464 168.053 275.969 172.589 275.969Z" fill="#FFE07D"/>
<path d="M152.054 256.399C156.59 256.399 160.268 252.894 160.268 248.571C160.268 244.247 156.59 240.742 152.054 240.742C147.517 240.742 143.84 244.247 143.84 248.571C143.84 252.894 147.517 256.399 152.054 256.399Z" fill="#FFE07D"/>
<path d="M193.124 295.54C197.66 295.54 201.338 292.035 201.338 287.712C201.338 283.388 197.66 279.883 193.124 279.883C188.588 279.883 184.91 283.388 184.91 287.712C184.91 292.035 188.588 295.54 193.124 295.54Z" fill="#FFE07D"/>
<path d="M152.054 295.54C156.59 295.54 160.268 292.035 160.268 287.712C160.268 283.388 156.59 279.883 152.054 279.883C147.517 279.883 143.84 283.388 143.84 287.712C143.84 292.035 147.517 295.54 152.054 295.54Z" fill="#FFE07D"/>
<path d="M78.1277 185.945C96.2737 185.945 110.984 171.925 110.984 154.632C110.984 137.338 96.2737 123.319 78.1277 123.319C59.9817 123.319 45.2715 137.338 45.2715 154.632C45.2715 171.925 59.9817 185.945 78.1277 185.945Z" fill="#FF8086"/>
<path d="M85.3145 179.095C67.1687 179.095 52.4582 165.075 52.4582 147.782C52.4582 140.884 54.8268 134.528 58.7913 129.354C50.6086 135.049 45.2705 144.235 45.2705 154.631C45.2705 171.925 59.981 185.944 78.1267 185.944C89.0351 185.944 98.6739 180.857 104.65 173.058C99.2211 176.838 92.5524 179.095 85.3145 179.095Z" fill="#E5646E"/>
<path d="M242.75 158.219C229.141 158.219 218.108 147.705 218.108 134.734C218.108 130.342 219.397 126.247 221.599 122.73C214.393 126.829 209.552 134.31 209.552 142.889C209.552 155.859 220.585 166.373 234.195 166.373C243.196 166.373 251.046 161.759 255.346 154.892C251.657 156.991 247.36 158.219 242.75 158.219V158.219Z" fill="#E5646E"/>
<path d="M201.649 240.446C199.373 238.275 196.345 237.08 193.124 237.08C189.903 237.08 186.876 238.275 184.599 240.445C182.321 242.615 181.067 245.501 181.067 248.57C181.067 251.639 182.321 254.525 184.599 256.695C186.875 258.865 189.903 260.061 193.124 260.061C196.345 260.061 199.372 258.865 201.649 256.695C203.927 254.525 205.181 251.639 205.181 248.57C205.181 245.501 203.927 242.616 201.649 240.446ZM196.215 251.516C195.39 252.303 194.292 252.737 193.124 252.737C191.957 252.737 190.859 252.303 190.033 251.516C189.208 250.729 188.753 249.683 188.753 248.57C188.753 247.457 189.208 246.411 190.033 245.624C190.859 244.837 191.957 244.404 193.124 244.404C194.292 244.404 195.39 244.837 196.215 245.625C197.041 246.411 197.496 247.458 197.496 248.571C197.496 249.683 197.041 250.729 196.215 251.516Z" fill="black"/>
<path d="M152.054 260.055C155.141 260.055 158.229 258.936 160.579 256.696C165.28 252.215 165.28 244.926 160.579 240.446C155.878 235.966 148.23 235.966 143.528 240.446C138.827 244.926 138.827 252.215 143.528 256.696C145.879 258.935 148.966 260.055 152.054 260.055ZM148.963 245.624C150.667 244 153.441 244 155.145 245.624C156.85 247.249 156.85 249.892 155.145 251.516C153.441 253.14 150.668 253.141 148.963 251.516C147.258 249.892 147.258 247.249 148.963 245.624V245.624Z" fill="black"/>
<path d="M193.124 299.202C196.345 299.202 199.372 298.006 201.649 295.836C203.927 293.666 205.181 290.78 205.181 287.711C205.181 284.642 203.927 281.757 201.649 279.586C199.373 277.416 196.345 276.22 193.124 276.22C189.903 276.22 186.876 277.416 184.599 279.586C182.321 281.756 181.067 284.641 181.067 287.711C181.067 290.779 182.321 293.665 184.599 295.836C186.876 298.006 189.904 299.202 193.124 299.202V299.202ZM190.033 284.766C190.859 283.979 191.956 283.546 193.124 283.546C194.292 283.546 195.389 283.979 196.215 284.766C197.041 285.552 197.495 286.599 197.495 287.712C197.495 288.824 197.041 289.87 196.215 290.657C195.389 291.444 194.292 291.878 193.124 291.878C191.956 291.878 190.859 291.444 190.033 290.657C189.207 289.87 188.753 288.824 188.753 287.711C188.753 286.599 189.207 285.552 190.033 284.766V284.766Z" fill="black"/>
<path d="M143.528 295.837C145.879 298.076 148.966 299.196 152.054 299.196C155.141 299.196 158.229 298.077 160.579 295.837C162.08 294.406 162.08 292.088 160.579 290.658C159.079 289.228 156.646 289.228 155.145 290.658C153.441 292.282 150.668 292.283 148.963 290.658C147.258 289.033 147.258 286.39 148.963 284.766C150.463 283.336 150.463 281.017 148.963 279.587C147.462 278.157 145.029 278.157 143.529 279.587C138.828 284.067 138.828 291.357 143.528 295.837V295.837Z" fill="black"/>
<path d="M184.646 268.141C184.646 261.805 179.237 256.651 172.589 256.651C165.941 256.651 160.533 261.805 160.533 268.141C160.533 274.476 165.941 279.631 172.589 279.631C179.237 279.631 184.646 274.477 184.646 268.141ZM172.589 272.307C170.179 272.307 168.218 270.438 168.218 268.141C168.218 265.844 170.179 263.975 172.589 263.975C174.999 263.975 176.96 265.844 176.96 268.141C176.96 270.438 174.999 272.307 172.589 272.307Z" fill="black"/>
<path d="M250.623 256.651C245.318 256.651 240.806 259.934 239.197 264.479H229.692C229.526 262.154 229.202 259.856 228.731 257.595L233.09 256.482C235.139 255.959 236.356 253.95 235.807 251.997C235.257 250.043 233.151 248.884 231.1 249.407L226.733 250.523C225.944 248.329 225.009 246.189 223.939 244.114L232.198 239.57C233.575 240.73 235.219 241.588 237.047 242.055C238.086 242.32 239.14 242.451 240.188 242.451C242.276 242.451 244.339 241.929 246.196 240.907C251.954 237.739 253.933 230.698 250.609 225.211C247.285 219.723 239.896 217.837 234.139 221.005C229.546 223.532 227.36 228.526 228.352 233.228L220.096 237.771C218.746 235.85 217.27 234.009 215.671 232.26L218.868 229.214C220.368 227.784 220.368 225.465 218.868 224.035C217.368 222.605 214.935 222.605 213.434 224.035L210.245 227.074C208.426 225.555 206.501 224.136 204.472 222.836L209.22 214.997C210.005 215.148 210.797 215.223 211.586 215.223C215.756 215.223 219.817 213.162 222.047 209.48C225.371 203.993 223.392 196.952 217.635 193.784C211.877 190.616 204.489 192.503 201.165 197.99C199.554 200.648 199.127 203.744 199.96 206.709C200.45 208.451 201.35 210.017 202.568 211.331L195.957 222.242C194.896 223.994 195.526 226.234 197.364 227.245C197.395 227.262 197.429 227.274 197.461 227.291C212.684 235.729 222.138 251.372 222.138 268.14C222.138 294.178 199.91 315.361 172.59 315.361C145.268 315.361 123.041 294.178 123.041 268.14C123.041 242.102 145.268 220.919 172.59 220.919C176.942 220.919 181.259 221.456 185.421 222.516C187.473 223.038 189.577 221.878 190.126 219.924C190.128 219.915 192.246 212.377 192.246 212.377C192.796 210.423 191.579 208.415 189.529 207.891C187.481 207.368 185.372 208.527 184.822 210.481L183.659 214.616C181.278 214.172 178.864 213.871 176.432 213.717V204.66C181.201 203.127 184.646 198.827 184.646 193.771C184.646 187.435 179.237 182.281 172.59 182.281C165.942 182.281 160.533 187.436 160.533 193.771C160.533 198.827 163.978 203.127 168.747 204.66V213.72C166.293 213.876 163.881 214.179 161.521 214.622L160.357 210.481C159.808 208.527 157.699 207.368 155.65 207.891C153.601 208.415 152.384 210.423 152.933 212.377L154.097 216.517C151.784 217.272 149.539 218.165 147.369 219.185L142.611 211.331C143.829 210.018 144.729 208.451 145.219 206.709C146.052 203.745 145.624 200.648 144.014 197.991C142.404 195.332 139.804 193.431 136.693 192.637C133.582 191.842 130.333 192.25 127.545 193.785C121.787 196.953 119.808 203.994 123.132 209.481C124.742 212.139 127.342 214.04 130.453 214.835C131.491 215.1 132.545 215.231 133.592 215.231C134.39 215.231 135.182 215.154 135.961 215.003L140.719 222.856C138.7 224.151 136.773 225.566 134.947 227.088L131.745 224.036C130.244 222.606 127.811 222.606 126.311 224.036C124.81 225.467 124.81 227.785 126.311 229.215L129.513 232.267C127.916 234.007 126.431 235.843 125.073 237.767L116.826 233.23C117.817 228.528 115.633 223.534 111.038 221.006C108.25 219.471 105.001 219.063 101.89 219.858C98.7789 220.652 96.1793 222.553 94.569 225.212C92.9587 227.869 92.5309 230.966 93.3644 233.93C94.198 236.895 96.1931 239.373 98.9818 240.907C100.84 241.93 102.901 242.452 104.991 242.452C106.037 242.452 107.092 242.321 108.13 242.055C109.958 241.589 111.602 240.731 112.98 239.571L121.221 244.105C120.151 246.173 119.214 248.313 118.422 250.517L114.078 249.408C112.03 248.885 109.92 250.044 109.371 251.997C108.822 253.951 110.038 255.959 112.088 256.483L116.433 257.592C115.969 259.842 115.65 262.14 115.487 264.479H105.98C104.372 259.934 99.86 256.651 94.5551 256.651C87.9069 256.651 82.4986 261.806 82.4986 268.141C82.4986 274.477 87.9074 279.631 94.5551 279.631C99.86 279.631 104.372 276.348 105.98 271.803H115.487C115.65 274.142 115.969 276.441 116.433 278.69L112.089 279.799C110.039 280.323 108.822 282.331 109.371 284.285C109.831 285.921 111.384 287 113.081 287C113.41 287 113.745 286.96 114.078 286.874L118.422 285.765C119.214 287.969 120.152 290.11 121.221 292.177L112.983 296.71C109.206 293.54 103.576 292.846 98.9818 295.375C93.2246 298.543 91.2449 305.584 94.569 311.071C96.7997 314.753 100.861 316.814 105.031 316.814C107.075 316.814 109.145 316.319 111.039 315.277C115.633 312.749 117.818 307.755 116.826 303.053L125.073 298.515C126.431 300.439 127.916 302.275 129.514 304.016L126.311 307.067C124.811 308.498 124.811 310.817 126.311 312.246C127.061 312.962 128.045 313.319 129.028 313.319C130.012 313.319 130.995 312.962 131.745 312.246L134.948 309.194C136.774 310.717 138.7 312.131 140.719 313.426L135.957 321.285C131.023 320.339 125.783 322.422 123.131 326.8C121.52 329.459 121.093 332.555 121.926 335.52C122.76 338.484 124.755 340.962 127.544 342.497C129.401 343.519 131.463 344.041 133.552 344.041C134.599 344.041 135.654 343.91 136.692 343.645C139.803 342.85 142.403 340.949 144.013 338.291C146.665 333.913 145.938 328.547 142.612 324.947L147.368 317.096C149.538 318.116 151.783 319.009 154.096 319.764L152.932 323.904C152.383 325.858 153.6 327.866 155.65 328.39C155.983 328.475 156.317 328.515 156.647 328.515C158.343 328.515 159.896 327.436 160.356 325.8L161.52 321.659C163.881 322.102 166.293 322.405 168.746 322.561V331.621C163.978 333.154 160.533 337.454 160.533 342.51C160.533 348.846 165.941 354 172.589 354C179.237 354 184.646 348.845 184.646 342.51C184.646 337.454 181.201 333.154 176.432 331.621V322.561C178.885 322.405 181.297 322.102 183.658 321.659L184.822 325.8C185.282 327.436 186.834 328.515 188.531 328.515C188.861 328.515 189.195 328.475 189.528 328.39C191.578 327.866 192.794 325.858 192.246 323.904L191.082 319.764C193.395 319.009 195.64 318.116 197.81 317.096L202.566 324.947C199.24 328.547 198.513 333.913 201.165 338.291C203.396 341.973 207.457 344.034 211.627 344.034C213.671 344.034 215.741 343.539 217.635 342.497C223.392 339.329 225.372 332.288 222.048 326.801C219.396 322.423 214.157 320.34 209.222 321.285L204.461 313.426C206.48 312.131 208.407 310.717 210.233 309.194L213.435 312.246C214.185 312.961 215.169 313.318 216.152 313.318C217.136 313.318 218.119 312.961 218.869 312.246C220.37 310.816 220.37 308.497 218.869 307.067L215.667 304.015C217.264 302.275 218.748 300.439 220.107 298.515L228.353 303.052C227.362 307.755 229.547 312.748 234.141 315.276C236.035 316.318 238.104 316.813 240.149 316.813C244.319 316.813 248.38 314.752 250.61 311.07C253.934 305.583 251.955 298.542 246.197 295.374C241.603 292.846 235.973 293.54 232.195 296.709L223.957 292.176C225.027 290.109 225.965 287.968 226.756 285.764L231.101 286.874C231.434 286.959 231.769 287 232.098 287C233.795 287 235.347 285.921 235.808 284.284C236.357 282.331 235.14 280.322 233.09 279.799L228.745 278.69C229.21 276.44 229.528 274.142 229.692 271.803H239.198C240.806 276.348 245.319 279.631 250.624 279.631C257.272 279.631 262.68 274.476 262.68 268.141C262.68 261.805 257.271 256.651 250.623 256.651V256.651ZM235.946 229.879C236.248 228.804 236.971 227.906 237.982 227.349C240.07 226.2 242.749 226.885 243.954 228.874C245.159 230.864 244.442 233.416 242.354 234.565C241.342 235.121 240.165 235.269 239.037 234.981C237.909 234.693 236.966 234.004 236.382 233.04C235.799 232.076 235.643 230.953 235.946 229.879V229.879ZM132.441 207.76C131.313 207.472 130.37 206.783 129.787 205.819C129.203 204.855 129.048 203.733 129.35 202.658C129.652 201.583 130.375 200.684 131.387 200.128C132.06 199.757 132.808 199.568 133.565 199.568C133.945 199.568 134.327 199.615 134.704 199.711C135.832 199.999 136.775 200.689 137.358 201.653C137.942 202.617 138.097 203.739 137.795 204.814C137.493 205.889 136.769 206.787 135.758 207.344C134.747 207.9 133.569 208.049 132.441 207.76V207.76ZM106.141 234.981C105.014 235.269 103.836 235.122 102.824 234.565C101.813 234.009 101.09 233.111 100.788 232.035C100.486 230.961 100.64 229.838 101.224 228.874C101.808 227.91 102.751 227.221 103.879 226.933C104.255 226.837 104.637 226.789 105.017 226.789C105.775 226.789 106.523 226.979 107.196 227.349C108.207 227.906 108.93 228.804 109.232 229.879C109.535 230.954 109.38 232.077 108.796 233.041C108.212 234.005 107.269 234.693 106.141 234.981V234.981ZM107.196 308.933C105.108 310.082 102.43 309.398 101.224 307.408C100.64 306.444 100.486 305.321 100.788 304.247C101.09 303.171 101.813 302.273 102.824 301.717C103.498 301.346 104.245 301.157 105.003 301.157C105.383 301.157 105.765 301.205 106.141 301.301C107.27 301.589 108.212 302.278 108.796 303.242C110.001 305.232 109.283 307.785 107.196 308.933V308.933ZM137.358 334.629C136.774 335.593 135.832 336.282 134.704 336.57C133.576 336.858 132.398 336.71 131.387 336.154C130.375 335.597 129.652 334.699 129.35 333.624C129.048 332.549 129.203 331.427 129.787 330.463C130.371 329.499 131.313 328.81 132.441 328.522C133.568 328.234 134.747 328.381 135.758 328.938C136.769 329.495 137.492 330.393 137.795 331.468C138.097 332.543 137.942 333.665 137.358 334.629ZM215.392 330.462C216.597 332.452 215.879 335.005 213.791 336.154C211.704 337.302 209.025 336.618 207.82 334.629C207.235 333.665 207.081 332.543 207.383 331.468C207.685 330.393 208.408 329.494 209.42 328.938C210.106 328.56 210.857 328.381 211.598 328.381C213.11 328.38 214.583 329.127 215.392 330.462V330.462ZM239.037 301.301C240.164 301.013 241.342 301.16 242.354 301.717C244.442 302.865 245.159 305.419 243.954 307.408C242.749 309.398 240.07 310.081 237.982 308.933C235.895 307.784 235.177 305.231 236.382 303.241C236.966 302.278 237.909 301.589 239.037 301.301V301.301ZM207.82 201.653C208.629 200.318 210.102 199.571 211.614 199.571C212.354 199.571 213.105 199.75 213.792 200.128C215.879 201.277 216.597 203.83 215.392 205.819C214.187 207.808 211.508 208.493 209.42 207.344C208.409 206.787 207.685 205.889 207.384 204.814C207.081 203.74 207.236 202.617 207.82 201.653V201.653ZM172.589 189.606C175 189.606 176.96 191.475 176.96 193.772C176.96 196.07 174.999 197.939 172.589 197.939C170.179 197.939 168.218 196.07 168.218 193.772C168.218 191.475 170.179 189.606 172.589 189.606ZM94.5551 272.307C92.1445 272.307 90.1838 270.438 90.1838 268.141C90.1838 265.844 92.1451 263.975 94.5551 263.975C96.9652 263.975 98.9265 265.844 98.9265 268.141C98.9265 270.438 96.9657 272.307 94.5551 272.307ZM172.589 346.675C170.179 346.675 168.218 344.806 168.218 342.509C168.218 340.212 170.179 338.343 172.589 338.343C174.999 338.343 176.96 340.212 176.96 342.509C176.96 344.806 174.999 346.675 172.589 346.675ZM250.623 272.307C248.212 272.307 246.251 270.438 246.251 268.141C246.251 265.844 248.212 263.975 250.623 263.975C253.033 263.975 254.994 265.844 254.994 268.141C254.994 270.438 253.033 272.307 250.623 272.307Z" fill="black"/>
<path d="M176.432 232.914C176.432 230.891 174.711 229.252 172.589 229.252H172.548C170.426 229.252 168.726 230.891 168.726 232.914C168.726 234.936 170.467 236.576 172.589 236.576C174.711 236.576 176.432 234.936 176.432 232.914V232.914Z" fill="black"/>
<path d="M135.625 264.479C133.503 264.479 131.803 266.118 131.803 268.141C131.803 270.164 133.544 271.803 135.667 271.803C137.79 271.803 139.509 270.164 139.509 268.141C139.509 266.118 137.789 264.479 135.667 264.479H135.625Z" fill="black"/>
<path d="M213.395 268.141C213.395 266.118 211.674 264.479 209.552 264.479H209.511C207.389 264.479 205.689 266.118 205.689 268.141C205.689 270.164 207.43 271.803 209.552 271.803C211.674 271.803 213.395 270.164 213.395 268.141V268.141Z" fill="black"/>
<path d="M172.589 299.706C170.467 299.706 168.767 301.345 168.767 303.368C168.767 305.391 170.508 307.03 172.63 307.03C174.752 307.03 176.473 305.391 176.473 303.368C176.473 301.345 174.752 299.706 172.63 299.706H172.589Z" fill="black"/>
<path d="M93.0422 186.576L99.4414 197.139C100.153 198.314 101.445 198.971 102.773 198.971C103.424 198.971 104.085 198.813 104.69 198.48C106.528 197.469 107.158 195.229 106.097 193.477L99.6924 182.906C102.796 180.749 105.532 178.142 107.794 175.184L118.887 181.288C119.492 181.621 120.153 181.779 120.805 181.779C122.133 181.779 123.424 181.122 124.136 179.948C125.197 178.196 124.567 175.956 122.73 174.945L111.645 168.847C113.185 165.562 114.215 162.016 114.623 158.294H127.411C129.533 158.294 131.253 156.655 131.253 154.632C131.253 152.61 129.533 150.97 127.411 150.97H114.623C114.215 147.248 113.185 143.702 111.645 140.418L122.729 134.319C124.567 133.308 125.197 131.068 124.135 129.317C123.074 127.565 120.724 126.966 118.886 127.977L107.794 134.08C105.531 131.122 102.796 128.515 99.6919 126.359L106.096 115.788C107.157 114.036 106.528 111.796 104.69 110.785C102.852 109.773 100.502 110.374 99.4409 112.125L93.0417 122.689C89.5956 121.222 85.8745 120.24 81.9693 119.851V107.662C81.9693 105.64 80.2489 104 78.1267 104C76.0046 104 74.2841 105.64 74.2841 107.662V119.849C70.3785 120.238 66.6579 121.22 63.2118 122.687L56.8126 112.124C55.7515 110.372 53.4014 109.772 51.5636 110.783C49.7258 111.794 49.0962 114.034 50.1572 115.786L56.5616 126.357C53.4578 128.513 50.7224 131.12 48.4598 134.078L37.367 127.975C35.5292 126.963 33.1791 127.563 32.118 129.315C31.057 131.066 31.6866 133.306 33.5244 134.317L44.6085 140.416C43.0689 143.701 42.0386 147.247 41.6303 150.969H28.8426C26.7205 150.969 25 152.608 25 154.631C25 156.654 26.7205 158.293 28.8426 158.293H41.6323C42.0345 161.943 43.0356 165.51 44.5952 168.852L33.5239 174.944C31.6861 175.955 31.0564 178.195 32.1175 179.946C32.8292 181.121 34.1208 181.778 35.4488 181.778C36.1005 181.778 36.7614 181.619 37.3665 181.286L51.5939 173.458L51.5933 173.458C53.4291 172.445 54.0557 170.205 52.9936 168.455C50.4549 164.274 49.1136 159.493 49.1136 154.63C49.1136 139.384 62.1292 126.979 78.1273 126.979C94.1253 126.979 107.141 139.384 107.141 154.63C107.141 169.877 94.1253 182.281 78.1273 182.281C73.0253 182.281 68.0089 181.003 63.6217 178.584C61.786 177.571 59.4353 178.168 58.3727 179.918L58.3712 179.917L50.1572 193.477C49.0962 195.229 49.7258 197.469 51.5636 198.48C52.1687 198.813 52.8296 198.971 53.4813 198.971C54.8093 198.971 56.101 198.314 56.8126 197.139L63.2047 186.588C66.7122 188.075 70.4544 189.029 74.2841 189.412V201.601C74.2841 203.624 76.0046 205.263 78.1267 205.263C80.2489 205.263 81.9693 203.624 81.9693 201.601V189.414C85.875 189.025 89.5961 188.043 93.0422 186.576V186.576Z" fill="black"/>
<path d="M78.1273 146.552C80.2494 146.552 81.9699 144.912 81.9699 142.89V138.975C81.9699 136.953 80.2494 135.313 78.1273 135.313C76.0051 135.313 74.2847 136.953 74.2847 138.975V142.89C74.2847 144.912 76.0051 146.552 78.1273 146.552Z" fill="black"/>
<path d="M74.2847 170.288C74.2847 172.311 76.0051 173.95 78.1273 173.95C80.2494 173.95 81.9699 172.311 81.9699 170.288V166.374C81.9699 164.351 80.2494 162.712 78.1273 162.712C76.0051 162.712 74.2847 164.351 74.2847 166.374V170.288Z" fill="black"/>
<path d="M94.5551 158.293C96.6773 158.293 98.3977 156.654 98.3977 154.631C98.3977 152.609 96.6773 150.969 94.5551 150.969H90.4482C88.326 150.969 86.6056 152.609 86.6056 154.631C86.6056 156.654 88.326 158.293 90.4482 158.293H94.5551Z" fill="black"/>
<path d="M61.6989 158.293H65.8058C67.928 158.293 69.6484 156.654 69.6484 154.631C69.6484 152.609 67.928 150.969 65.8058 150.969H61.6989C59.5767 150.969 57.8563 152.609 57.8563 154.631C57.8563 156.654 59.5767 158.293 61.6989 158.293Z" fill="black"/>
<path d="M271.158 139.227H262.417C261.762 134.57 259.861 130.195 256.868 126.46L263.049 120.57C264.55 119.14 264.55 116.821 263.049 115.391C261.548 113.961 259.115 113.961 257.615 115.391L248.903 123.694L248.911 123.714C247.418 125.144 247.418 127.456 248.915 128.885C252.835 132.627 254.994 137.602 254.994 142.89C254.994 153.82 245.664 162.713 234.195 162.713C222.725 162.713 213.395 153.82 213.395 142.89C213.395 131.959 222.725 123.067 234.195 123.067C235.459 123.067 236.725 123.176 237.957 123.39C240.046 123.753 242.046 122.435 242.427 120.445C242.808 118.455 241.424 116.548 239.337 116.185C238.906 116.11 238.473 116.045 238.037 115.99V107.662C238.037 105.64 236.317 104 234.195 104C232.073 104 230.352 105.64 230.352 107.662V115.996C225.367 116.64 220.789 118.513 216.965 121.29L210.775 115.391C209.274 113.96 206.841 113.96 205.341 115.391C203.84 116.821 203.84 119.14 205.341 120.569L211.532 126.469C208.618 130.113 206.652 134.477 205.977 139.227H197.232C195.11 139.227 193.389 140.867 193.389 142.89C193.389 144.912 195.11 146.552 197.232 146.552H205.977C206.652 151.302 208.618 155.666 211.532 159.309L205.341 165.209C203.84 166.64 203.84 168.958 205.341 170.388C206.091 171.103 207.075 171.46 208.058 171.46C209.041 171.46 210.025 171.103 210.775 170.388L216.965 164.488C220.789 167.265 225.367 169.138 230.352 169.782V178.116C230.352 180.139 232.073 181.778 234.195 181.778C236.317 181.778 238.037 180.139 238.037 178.116V169.782C243.022 169.139 247.601 167.265 251.424 164.488L257.615 170.388C258.365 171.103 259.348 171.46 260.332 171.46C261.315 171.46 262.298 171.103 263.049 170.388C264.549 168.958 264.549 166.639 263.049 165.209L256.858 159.309C259.772 155.666 261.737 151.302 262.413 146.552H271.157C273.28 146.552 275 144.912 275 142.89C275.001 140.867 273.28 139.227 271.158 139.227V139.227Z" fill="black"/>
<path d="M242.368 135.313C240.245 135.313 238.546 136.953 238.546 138.975C238.546 140.998 240.286 142.637 242.409 142.637C244.531 142.637 246.251 140.998 246.251 138.975C246.251 136.953 244.531 135.313 242.409 135.313H242.368Z" fill="black"/>
<path d="M234.195 147.056H234.154C232.032 147.056 230.332 148.695 230.332 150.718C230.332 152.74 232.073 154.38 234.195 154.38C236.317 154.38 238.037 152.74 238.037 150.718C238.037 148.695 236.317 147.056 234.195 147.056V147.056Z" fill="black"/>
<path d="M225.939 135.313C223.817 135.313 222.117 136.953 222.117 138.975C222.117 140.998 223.858 142.637 225.98 142.637C228.102 142.637 229.823 140.998 229.823 138.975C229.823 136.953 228.102 135.313 225.98 135.313H225.939Z" fill="black"/>
</svg>
