<svg width="300" height="480" viewBox="0 0 300 480" fill="none" xmlns="http://www.w3.org/2000/svg">
<rect width="300" height="480" fill="#96ACE6"/>
<path d="M240.938 310H58.0625C50.852 310 45 304.298 45 297.273V182.727C45 175.702 50.852 170 58.0625 170H240.938C248.148 170 254 175.702 254 182.727V297.273C254 304.298 248.148 310 240.938 310Z" fill="#1E88E5"/>
<path d="M240.938 310H58.0625C50.7344 310 45 304.413 45 297.273C45 295.249 45.9927 293.34 47.6647 292.144L145.633 228.507C146.783 227.68 148.141 227.273 149.5 227.273C150.859 227.273 152.217 227.68 153.366 228.507L251.335 292.144C253.007 293.34 254 295.249 254 297.273C254 304.413 248.266 310 240.938 310Z" fill="#2196F3"/>
<path d="M240.938 170H58.0625C50.7344 170 45 175.587 45 182.727C45 184.751 45.9927 186.66 47.6647 187.856L145.686 256.418C147.959 258.009 151.028 258.009 153.301 256.418L251.322 187.856C253.007 186.66 254 184.751 254 182.727C254 175.587 248.266 170 240.938 170Z" fill="#64B5F6"/>
</svg>
