<svg width="300" height="480" viewBox="0 0 300 480" fill="none" xmlns="http://www.w3.org/2000/svg">
<rect width="300" height="480" fill="#030303"/>
<path d="M254.817 299.858V180.146C254.817 179.218 254.579 178.306 254.128 177.503C253.677 176.699 253.028 176.032 252.247 175.568L151.354 115.708C150.573 115.244 149.685 115 148.783 115C147.88 115 146.993 115.244 146.211 115.708L45.3523 175.568C44.5707 176.032 43.9218 176.699 43.4706 177.503C43.0195 178.306 42.782 179.218 42.782 180.146V299.858C42.782 300.786 43.0195 301.697 43.4706 302.5C43.9218 303.304 44.5707 303.971 45.3523 304.436L146.228 364.292C147.009 364.756 147.897 365 148.799 365C149.702 365 150.589 364.756 151.371 364.292L252.243 304.442C253.026 303.978 253.677 303.31 254.128 302.505C254.58 301.7 254.818 300.787 254.817 299.858V299.858Z" fill="url(#paint0_linear)"/>
<path d="M63.0971 156.642H152.146C152.781 156.642 153.296 156.113 153.296 155.461V154.713C153.296 154.061 152.781 153.532 152.146 153.532H63.0971C62.462 153.532 61.9472 154.061 61.9472 154.713V155.461C61.9472 156.113 62.462 156.642 63.0971 156.642Z" fill="white" stroke="white" stroke-width="0.5" stroke-miterlimit="10"/>
<path d="M52.7147 170.031L179.14 170.031C179.775 170.031 180.29 169.502 180.29 168.849V168.102C180.29 167.449 179.775 166.92 179.14 166.92L52.7147 166.92C52.0796 166.92 51.5648 167.449 51.5648 168.102V168.849C51.5648 169.502 52.0796 170.031 52.7147 170.031Z" fill="white" stroke="white" stroke-width="0.5" stroke-miterlimit="10"/>
<path d="M39.2919 156.642L165.717 156.642C166.352 156.642 166.867 156.113 166.867 155.461V154.713C166.867 154.061 166.352 153.532 165.717 153.532L39.2919 153.532C38.6569 153.532 38.1421 154.061 38.1421 154.713V155.461C38.1421 156.113 38.6569 156.642 39.2919 156.642Z" fill="white" stroke="white" stroke-width="0.5" stroke-miterlimit="10"/>
<path d="M26.1499 143.139L152.575 143.139C153.21 143.139 153.725 142.61 153.725 141.957V141.21C153.725 140.557 153.21 140.028 152.575 140.028L26.1499 140.028C25.5148 140.028 25 140.557 25 141.21V141.957C25 142.61 25.5148 143.139 26.1499 143.139Z" fill="white" stroke="white" stroke-width="0.5" stroke-miterlimit="10"/>
<g opacity="0.4">
<path opacity="0.4" d="M52.7147 170.952L179.14 170.952C179.775 170.952 180.29 170.423 180.29 169.77V169.023C180.29 168.37 179.775 167.841 179.14 167.841L52.7147 167.841C52.0796 167.841 51.5648 168.37 51.5648 169.023V169.77C51.5648 170.423 52.0796 170.952 52.7147 170.952Z" fill="white" stroke="white" stroke-width="0.5" stroke-miterlimit="10"/>
<path opacity="0.4" d="M39.2919 157.563L165.717 157.563C166.352 157.563 166.867 157.034 166.867 156.382V155.634C166.867 154.982 166.352 154.453 165.717 154.453L39.2919 154.453C38.6569 154.453 38.1421 154.982 38.1421 155.634V156.382C38.1421 157.034 38.6569 157.563 39.2919 157.563Z" fill="white" stroke="white" stroke-width="0.5" stroke-miterlimit="10"/>
<path opacity="0.4" d="M26.1499 144.064L152.575 144.064C153.21 144.064 153.725 143.535 153.725 142.882V142.135C153.725 141.482 153.21 140.953 152.575 140.953L26.1499 140.953C25.5148 140.953 25 141.482 25 142.135V142.882C25 143.535 25.5148 144.064 26.1499 144.064Z" fill="white" stroke="white" stroke-width="0.5" stroke-miterlimit="10"/>
</g>
<path d="M247.563 315.885H122.463C121.83 315.885 121.316 316.412 121.316 317.063V317.81C121.316 318.461 121.83 318.989 122.463 318.989H247.563C248.196 318.989 248.709 318.461 248.709 317.81V317.063C248.709 316.412 248.196 315.885 247.563 315.885Z" fill="white" stroke="white" stroke-width="0.5" stroke-miterlimit="10"/>
<path d="M260.85 329.228H135.75C135.117 329.228 134.604 329.756 134.604 330.406V331.154C134.604 331.804 135.117 332.332 135.75 332.332H260.85C261.483 332.332 261.997 331.804 261.997 331.154V330.406C261.997 329.756 261.483 329.228 260.85 329.228Z" fill="white" stroke="white" stroke-width="0.5" stroke-miterlimit="10"/>
<path d="M273.854 342.69H148.754C148.121 342.69 147.607 343.217 147.607 343.868V344.615C147.607 345.266 148.121 345.794 148.754 345.794H273.854C274.487 345.794 275 345.266 275 344.615V343.868C275 343.217 274.487 342.69 273.854 342.69Z" fill="white" stroke="white" stroke-width="0.5" stroke-miterlimit="10"/>
<g opacity="0.4">
<path opacity="0.4" d="M247.563 314.915H122.463C121.83 314.915 121.316 315.443 121.316 316.093V316.841C121.316 317.491 121.83 318.019 122.463 318.019H247.563C248.196 318.019 248.709 317.491 248.709 316.841V316.093C248.709 315.443 248.196 314.915 247.563 314.915Z" fill="white" stroke="white" stroke-width="0.5" stroke-miterlimit="10"/>
<path opacity="0.4" d="M260.85 328.258H135.75C135.117 328.258 134.604 328.786 134.604 329.437V330.184C134.604 330.835 135.117 331.362 135.75 331.362H260.85C261.483 331.362 261.997 330.835 261.997 330.184V329.437C261.997 328.786 261.483 328.258 260.85 328.258Z" fill="white" stroke="white" stroke-width="0.5" stroke-miterlimit="10"/>
<path opacity="0.4" d="M273.854 341.72H148.754C148.121 341.72 147.607 342.248 147.607 342.898V343.646C147.607 344.296 148.121 344.824 148.754 344.824H273.854C274.487 344.824 275 344.296 275 343.646V342.898C275 342.248 274.487 341.72 273.854 341.72Z" fill="white" stroke="white" stroke-width="0.5" stroke-miterlimit="10"/>
</g>
<path d="M207.352 166.837C207.486 166.837 207.615 166.782 207.711 166.684C207.806 166.586 207.859 166.454 207.859 166.315C207.859 166.177 207.806 166.045 207.711 165.947C207.615 165.849 207.486 165.794 207.352 165.794C207.217 165.794 207.088 165.849 206.993 165.947C206.898 166.045 206.845 166.177 206.845 166.315C206.845 166.454 206.898 166.586 206.993 166.684C207.088 166.782 207.217 166.837 207.352 166.837Z" fill="white"/>
<path d="M245.398 187.17C245.533 187.17 245.662 187.115 245.757 187.017C245.852 186.92 245.906 186.787 245.906 186.649C245.906 186.51 245.852 186.378 245.757 186.28C245.662 186.182 245.533 186.127 245.398 186.127C245.264 186.127 245.135 186.182 245.04 186.28C244.944 186.378 244.891 186.51 244.891 186.649C244.891 186.787 244.944 186.92 245.04 187.017C245.135 187.115 245.264 187.17 245.398 187.17V187.17Z" fill="white"/>
<path d="M251.486 283.098C251.62 283.098 251.749 283.043 251.844 282.945C251.94 282.847 251.993 282.715 251.993 282.576C251.993 282.438 251.94 282.306 251.844 282.208C251.749 282.11 251.62 282.055 251.486 282.055C251.351 282.055 251.222 282.11 251.127 282.208C251.032 282.306 250.978 282.438 250.978 282.576C250.978 282.715 251.032 282.847 251.127 282.945C251.222 283.043 251.351 283.098 251.486 283.098V283.098Z" fill="white"/>
<path d="M164.236 294.046C164.371 294.046 164.5 293.992 164.595 293.894C164.69 293.796 164.743 293.663 164.743 293.525C164.743 293.387 164.69 293.254 164.595 293.156C164.5 293.059 164.371 293.004 164.236 293.004C164.102 293.004 163.973 293.059 163.877 293.156C163.782 293.254 163.729 293.387 163.729 293.525C163.729 293.663 163.782 293.796 163.877 293.894C163.973 293.992 164.102 294.046 164.236 294.046Z" fill="white"/>
<path d="M222.57 206.982C222.705 206.982 222.834 206.927 222.929 206.829C223.024 206.731 223.078 206.599 223.078 206.461C223.078 206.322 223.024 206.19 222.929 206.092C222.834 205.994 222.705 205.939 222.57 205.939C222.436 205.939 222.307 205.994 222.212 206.092C222.117 206.19 222.063 206.322 222.063 206.461C222.063 206.599 222.117 206.731 222.212 206.829C222.307 206.927 222.436 206.982 222.57 206.982Z" fill="white"/>
<path d="M207.352 290.918C207.486 290.918 207.615 290.863 207.711 290.766C207.806 290.668 207.859 290.535 207.859 290.397C207.859 290.259 207.806 290.126 207.711 290.028C207.615 289.93 207.486 289.876 207.352 289.876C207.217 289.876 207.088 289.93 206.993 290.028C206.898 290.126 206.845 290.259 206.845 290.397C206.845 290.535 206.898 290.668 206.993 290.766C207.088 290.863 207.217 290.918 207.352 290.918Z" fill="white"/>
<path d="M247.427 243.995C247.562 243.995 247.691 243.94 247.786 243.843C247.881 243.745 247.935 243.612 247.935 243.474C247.935 243.336 247.881 243.203 247.786 243.105C247.691 243.008 247.562 242.953 247.427 242.953C247.293 242.953 247.164 243.008 247.069 243.105C246.974 243.203 246.92 243.336 246.92 243.474C246.92 243.612 246.974 243.745 247.069 243.843C247.164 243.94 247.293 243.995 247.427 243.995V243.995Z" fill="white"/>
<path d="M126.19 185.085V185.606C126.19 185.744 126.243 185.877 126.338 185.975C126.433 186.072 126.563 186.127 126.697 186.127C126.832 186.127 126.961 186.072 127.056 185.975C127.151 185.877 127.204 185.744 127.204 185.606V185.085C127.204 184.946 127.151 184.814 127.056 184.716C126.961 184.618 126.832 184.563 126.697 184.563C126.563 184.563 126.433 184.618 126.338 184.716C126.243 184.814 126.19 184.946 126.19 185.085V185.085Z" fill="white"/>
<path d="M186.557 197.597C186.691 197.597 186.82 197.542 186.915 197.445C187.01 197.347 187.064 197.214 187.064 197.076C187.064 196.938 187.01 196.805 186.915 196.707C186.82 196.61 186.691 196.555 186.557 196.555C186.422 196.555 186.293 196.61 186.198 196.707C186.103 196.805 186.049 196.938 186.049 197.076C186.049 197.214 186.103 197.347 186.198 197.445C186.293 197.542 186.422 197.597 186.557 197.597Z" fill="white"/>
<path d="M171.338 146.507C171.473 146.507 171.602 146.452 171.697 146.354C171.792 146.257 171.845 146.124 171.845 145.986C171.845 145.847 171.792 145.715 171.697 145.617C171.602 145.519 171.473 145.464 171.338 145.464C171.204 145.464 171.075 145.519 170.979 145.617C170.884 145.715 170.831 145.847 170.831 145.986C170.831 146.124 170.884 146.257 170.979 146.354C171.075 146.452 171.204 146.507 171.338 146.507V146.507Z" fill="white"/>
<path d="M154.598 123.567C154.732 123.567 154.861 123.512 154.956 123.414C155.052 123.317 155.105 123.184 155.105 123.046C155.105 122.907 155.052 122.775 154.956 122.677C154.861 122.579 154.732 122.524 154.598 122.524C154.463 122.524 154.334 122.579 154.239 122.677C154.144 122.775 154.09 122.907 154.09 123.046C154.09 123.184 154.144 123.317 154.239 123.414C154.334 123.512 154.463 123.567 154.598 123.567Z" fill="white"/>
<path d="M129.741 297.696C129.875 297.696 130.004 297.641 130.099 297.543C130.195 297.446 130.248 297.313 130.248 297.175C130.248 297.036 130.195 296.904 130.099 296.806C130.004 296.708 129.875 296.653 129.741 296.653C129.606 296.653 129.477 296.708 129.382 296.806C129.287 296.904 129.233 297.036 129.233 297.175C129.233 297.313 129.287 297.446 129.382 297.543C129.477 297.641 129.606 297.696 129.741 297.696V297.696Z" fill="white"/>
<path d="M122.131 282.055C122.266 282.055 122.395 282 122.49 281.902C122.585 281.805 122.639 281.672 122.639 281.534C122.639 281.395 122.585 281.263 122.49 281.165C122.395 281.067 122.266 281.012 122.131 281.012C121.997 281.012 121.868 281.067 121.773 281.165C121.678 281.263 121.624 281.395 121.624 281.534C121.624 281.672 121.678 281.805 121.773 281.902C121.868 282 121.997 282.055 122.131 282.055V282.055Z" fill="white"/>
<path d="M95.2488 307.077C95.3833 307.077 95.5123 307.022 95.6075 306.924C95.7026 306.827 95.7561 306.694 95.7561 306.556C95.7561 306.417 95.7026 306.285 95.6075 306.187C95.5123 306.089 95.3833 306.034 95.2488 306.034C95.1142 306.034 94.9852 306.089 94.8901 306.187C94.7949 306.285 94.7415 306.417 94.7415 306.556C94.7415 306.694 94.7949 306.827 94.8901 306.924C94.9852 307.022 95.1142 307.077 95.2488 307.077Z" fill="white"/>
<path d="M130.755 334.188C130.89 334.188 131.019 334.133 131.114 334.035C131.209 333.938 131.263 333.805 131.263 333.667C131.263 333.528 131.209 333.396 131.114 333.298C131.019 333.2 130.89 333.145 130.755 333.145C130.621 333.145 130.492 333.2 130.397 333.298C130.301 333.396 130.248 333.528 130.248 333.667C130.248 333.805 130.301 333.938 130.397 334.035C130.492 334.133 130.621 334.188 130.755 334.188V334.188Z" fill="white"/>
<path d="M152.569 356.085C152.703 356.085 152.832 356.031 152.927 355.933C153.022 355.835 153.076 355.702 153.076 355.564C153.076 355.426 153.022 355.293 152.927 355.195C152.832 355.098 152.703 355.043 152.569 355.043C152.434 355.043 152.305 355.098 152.21 355.195C152.115 355.293 152.061 355.426 152.061 355.564C152.061 355.702 152.115 355.835 152.21 355.933C152.305 356.031 152.434 356.085 152.569 356.085V356.085Z" fill="white"/>
<path d="M228.658 307.077C228.792 307.077 228.921 307.022 229.017 306.924C229.112 306.827 229.165 306.694 229.165 306.556C229.165 306.417 229.112 306.285 229.017 306.187C228.921 306.089 228.792 306.034 228.658 306.034C228.523 306.034 228.394 306.089 228.299 306.187C228.204 306.285 228.151 306.417 228.151 306.556C228.151 306.694 228.204 306.827 228.299 306.924C228.394 307.022 228.523 307.077 228.658 307.077V307.077Z" fill="white"/>
<path d="M157.641 185.606C157.776 185.606 157.905 185.551 158 185.453C158.095 185.356 158.149 185.223 158.149 185.085C158.149 184.946 158.095 184.814 158 184.716C157.905 184.618 157.776 184.563 157.641 184.563C157.507 184.563 157.378 184.618 157.283 184.716C157.188 184.814 157.134 184.946 157.134 185.085C157.134 185.223 157.188 185.356 157.283 185.453C157.378 185.551 157.507 185.606 157.641 185.606Z" fill="white"/>
<path d="M218.005 266.414C218.139 266.414 218.268 266.359 218.364 266.261C218.459 266.164 218.512 266.031 218.512 265.893C218.512 265.754 218.459 265.622 218.364 265.524C218.268 265.426 218.139 265.371 218.005 265.371C217.87 265.371 217.741 265.426 217.646 265.524C217.551 265.622 217.498 265.754 217.498 265.893C217.498 266.031 217.551 266.164 217.646 266.261C217.741 266.359 217.87 266.414 218.005 266.414Z" fill="white"/>
<path d="M252.5 208.025C252.635 208.025 252.764 207.97 252.859 207.872C252.954 207.774 253.008 207.642 253.008 207.503C253.008 207.365 252.954 207.232 252.859 207.135C252.764 207.037 252.635 206.982 252.5 206.982C252.366 206.982 252.237 207.037 252.142 207.135C252.046 207.232 251.993 207.365 251.993 207.503C251.993 207.642 252.046 207.774 252.142 207.872C252.237 207.97 252.366 208.025 252.5 208.025V208.025Z" fill="white"/>
<path d="M99.3071 163.187C99.4416 163.187 99.5706 163.132 99.6658 163.035C99.7609 162.937 99.8143 162.804 99.8143 162.666C99.8143 162.528 99.7609 162.395 99.6658 162.297C99.5706 162.199 99.4416 162.145 99.3071 162.145C99.1725 162.145 99.0435 162.199 98.9484 162.297C98.8532 162.395 98.7998 162.528 98.7998 162.666C98.7998 162.804 98.8532 162.937 98.9484 163.035C99.0435 163.132 99.1725 163.187 99.3071 163.187Z" fill="white"/>
<path d="M130.755 148.071C130.89 148.071 131.019 148.016 131.114 147.918C131.209 147.821 131.263 147.688 131.263 147.55C131.263 147.412 131.209 147.279 131.114 147.181C131.019 147.083 130.89 147.028 130.755 147.028C130.621 147.028 130.492 147.083 130.397 147.181C130.301 147.279 130.248 147.412 130.248 147.55C130.248 147.688 130.301 147.821 130.397 147.918C130.492 148.016 130.621 148.071 130.755 148.071V148.071Z" fill="white"/>
<path d="M178.44 339.402C178.575 339.402 178.704 339.347 178.799 339.249C178.894 339.151 178.947 339.019 178.947 338.88C178.947 338.742 178.894 338.61 178.799 338.512C178.704 338.414 178.575 338.359 178.44 338.359C178.306 338.359 178.177 338.414 178.081 338.512C177.986 338.61 177.933 338.742 177.933 338.88C177.933 339.019 177.986 339.151 178.081 339.249C178.177 339.347 178.306 339.402 178.44 339.402V339.402Z" fill="white"/>
<path d="M162.207 323.761C162.342 323.761 162.471 323.706 162.566 323.608C162.661 323.51 162.714 323.378 162.714 323.239C162.714 323.101 162.661 322.969 162.566 322.871C162.471 322.773 162.342 322.718 162.207 322.718C162.072 322.718 161.943 322.773 161.848 322.871C161.753 322.969 161.7 323.101 161.7 323.239C161.7 323.378 161.753 323.51 161.848 323.608C161.943 323.706 162.072 323.761 162.207 323.761Z" fill="white"/>
<path d="M152.061 162.145C152.196 162.145 152.325 162.09 152.42 161.992C152.515 161.894 152.569 161.761 152.569 161.623C152.569 161.485 152.515 161.352 152.42 161.255C152.325 161.157 152.196 161.102 152.061 161.102C151.927 161.102 151.798 161.157 151.703 161.255C151.607 161.352 151.554 161.485 151.554 161.623C151.554 161.761 151.607 161.894 151.703 161.992C151.798 162.09 151.927 162.145 152.061 162.145Z" fill="white"/>
<path d="M207.859 323.239C207.994 323.239 208.123 323.185 208.218 323.087C208.313 322.989 208.366 322.856 208.366 322.718C208.366 322.58 208.313 322.447 208.218 322.349C208.123 322.252 207.994 322.197 207.859 322.197C207.725 322.197 207.596 322.252 207.5 322.349C207.405 322.447 207.352 322.58 207.352 322.718C207.352 322.856 207.405 322.989 207.5 323.087C207.596 323.185 207.725 323.239 207.859 323.239Z" fill="white"/>
<path d="M92.2051 179.871C92.3396 179.871 92.4686 179.816 92.5638 179.718C92.6589 179.62 92.7124 179.488 92.7124 179.35C92.7124 179.211 92.6589 179.079 92.5638 178.981C92.4686 178.883 92.3396 178.828 92.2051 178.828C92.0705 178.828 91.9415 178.883 91.8464 178.981C91.7512 179.079 91.6978 179.211 91.6978 179.35C91.6978 179.488 91.7512 179.62 91.8464 179.718C91.9415 179.816 92.0705 179.871 92.2051 179.871Z" fill="white"/>
<path d="M143.945 202.29C144.079 202.29 144.208 202.235 144.303 202.137C144.399 202.039 144.452 201.907 144.452 201.768C144.452 201.63 144.399 201.497 144.303 201.4C144.208 201.302 144.079 201.247 143.945 201.247C143.81 201.247 143.681 201.302 143.586 201.4C143.491 201.497 143.437 201.63 143.437 201.768C143.437 201.907 143.491 202.039 143.586 202.137C143.681 202.235 143.81 202.29 143.945 202.29Z" fill="white"/>
<path d="M156.12 266.935C156.254 266.935 156.383 266.881 156.478 266.783C156.573 266.685 156.627 266.552 156.627 266.414C156.627 266.276 156.573 266.143 156.478 266.045C156.383 265.948 156.254 265.893 156.12 265.893C155.985 265.893 155.856 265.948 155.761 266.045C155.666 266.143 155.612 266.276 155.612 266.414C155.612 266.552 155.666 266.685 155.761 266.783C155.856 266.881 155.985 266.935 156.12 266.935Z" fill="white"/>
<path d="M187.061 266.935C187.195 266.935 187.324 266.881 187.419 266.783C187.514 266.685 187.568 266.552 187.568 266.414C187.568 266.276 187.514 266.143 187.419 266.045C187.324 265.948 187.195 265.893 187.061 265.893C186.926 265.893 186.797 265.948 186.702 266.045C186.607 266.143 186.553 266.276 186.553 266.414C186.553 266.552 186.607 266.685 186.702 266.783C186.797 266.881 186.926 266.935 187.061 266.935Z" fill="white"/>
<path opacity="0.4" d="M183.033 240.812C183.033 240.812 185.674 228.963 168.491 222.512C168.491 222.512 159.359 219.731 156.701 214.667C156.701 214.667 156.116 220.614 162.684 226.429C162.684 226.429 142.592 224.757 140.252 209.189C140.252 209.189 137.651 210.659 138.3 217.677C138.3 217.677 45.6803 189.822 38.744 164.341V279.389C38.744 279.389 44.3749 265.99 63.9324 258.882C63.9324 258.882 41.1655 270.112 38.744 299.079L38.9537 314.908C59.705 296.598 90.69 274.502 132.264 260.829C143.417 257.19 154.79 254.303 166.309 252.188C169.141 251.815 172.058 251.483 175.062 251.194C177.129 250.997 179.158 250.828 181.149 250.686C182.42 250.748 183.674 251.008 184.869 251.458C186.981 252.273 188.848 253.646 190.28 255.438C190.28 255.438 195.918 248.587 183.033 240.812ZM175.704 237.086C174.448 235.969 173.631 234.421 173.404 232.73C176.695 232.564 180.04 235.598 179.955 238.726C178.397 238.696 176.897 238.117 175.704 237.086V237.086Z" fill="white" stroke="white" stroke-width="0.5" stroke-miterlimit="10"/>
<path d="M183.033 238.559C183.033 238.559 185.674 226.71 168.491 220.259C168.491 220.259 159.359 217.479 156.701 212.415C156.701 212.415 156.116 218.362 162.684 224.177C162.684 224.177 142.592 222.505 140.252 206.937C140.252 206.937 137.651 208.407 138.3 215.425C138.3 215.425 45.6803 187.57 38.744 162.089V277.137C40.2648 274.442 42.0289 271.901 44.013 269.546C54.3143 257.315 67.9704 253.31 75.0622 251.858C70.5812 254.134 42.9342 268.687 38.7542 296.834C37.9839 302.087 38.0548 307.434 38.9639 312.663C59.705 294.363 90.69 272.25 132.264 258.562C143.417 254.924 154.79 252.037 166.309 249.922C169.141 249.549 172.058 249.217 175.062 248.928C177.129 248.731 179.158 248.561 181.149 248.42C182.42 248.481 183.674 248.742 184.869 249.192C186.981 250.007 188.848 251.38 190.28 253.171C190.28 253.171 195.918 246.338 183.033 238.559ZM175.704 234.837C174.448 233.721 173.631 232.172 173.404 230.482C176.695 230.315 180.04 233.349 179.955 236.477C178.397 236.447 176.897 235.868 175.704 234.837V234.837Z" fill="white" stroke="white" stroke-width="0.5" stroke-miterlimit="10"/>
<path d="M173.404 230.409C173.404 230.409 179.12 230.37 179.955 236.404C179.955 236.401 174.395 236.109 173.404 230.409Z" fill="url(#paint1_linear)"/>
<g opacity="0.4">
<path opacity="0.4" d="M183.033 240.812C183.033 240.812 185.674 228.963 168.491 222.512C168.491 222.512 159.359 219.731 156.701 214.667C156.701 214.667 156.116 220.614 162.684 226.429C162.684 226.429 142.592 224.757 140.252 209.189C140.252 209.189 137.651 210.659 138.3 217.677C138.3 217.677 45.6803 189.822 38.744 164.341V279.389C40.2617 276.696 42.0224 274.156 44.0029 271.802C54.3041 259.57 67.9602 255.566 75.0521 254.113C70.5711 256.39 42.924 270.943 38.744 299.09C37.9738 304.342 38.0446 309.689 38.9537 314.918C59.705 296.598 90.69 274.502 132.264 260.829C143.417 257.19 154.79 254.303 166.309 252.188C169.141 251.815 172.058 251.483 175.062 251.194C177.129 250.997 179.158 250.828 181.149 250.686C182.42 250.748 183.674 251.008 184.869 251.458C186.981 252.273 188.848 253.646 190.28 255.438C190.28 255.438 195.918 248.587 183.033 240.812ZM175.704 237.086C174.448 235.969 173.63 234.421 173.404 232.73C176.695 232.564 180.04 235.598 179.955 238.726C178.397 238.696 176.897 238.117 175.704 237.086V237.086Z" fill="white" stroke="white" stroke-width="0.5" stroke-miterlimit="10"/>
<path opacity="0.4" d="M173.404 232.654C173.404 232.654 179.12 232.616 179.955 238.65C179.955 238.65 174.395 238.361 173.404 232.654Z" fill="white" stroke="white" stroke-width="0.5" stroke-miterlimit="10"/>
</g>
<path d="M183.033 238.559C183.033 238.559 185.674 226.71 168.491 220.259C168.491 220.259 159.359 217.479 156.701 212.415C156.701 212.415 156.116 218.362 162.684 224.177C162.684 224.177 142.592 222.505 140.252 206.937C140.252 206.937 137.651 208.407 138.3 215.425C138.3 215.425 45.6803 187.57 38.744 162.089V277.137C40.2648 274.442 42.0289 271.901 44.013 269.546C54.3143 257.315 67.9704 253.31 75.0622 251.858C70.5812 254.134 42.9342 268.687 38.7542 296.834C37.9839 302.087 38.0548 307.434 38.9639 312.663C59.705 294.363 90.69 272.25 132.264 258.562C143.417 254.924 154.79 252.037 166.309 249.922C169.141 249.549 172.058 249.217 175.062 248.928C177.129 248.731 179.158 248.561 181.149 248.42C182.42 248.481 183.674 248.742 184.869 249.192C186.981 250.007 188.848 251.38 190.28 253.171C190.28 253.171 195.918 246.338 183.033 238.559ZM175.704 234.837C174.448 233.721 173.631 232.172 173.404 230.482C176.695 230.315 180.04 233.349 179.955 236.477C178.397 236.447 176.897 235.868 175.704 234.837V234.837Z" fill="white" stroke="white" stroke-width="0.5" stroke-miterlimit="10"/>
<path d="M173.404 230.409C173.404 230.409 179.12 230.37 179.955 236.404C179.955 236.401 174.395 236.109 173.404 230.409Z" fill="url(#paint2_linear)"/>
<path d="M198.204 219.561C198.338 219.561 198.467 219.506 198.563 219.408C198.658 219.31 198.711 219.178 198.711 219.039C198.711 218.901 198.658 218.768 198.563 218.671C198.467 218.573 198.338 218.518 198.204 218.518C198.069 218.518 197.94 218.573 197.845 218.671C197.75 218.768 197.697 218.901 197.697 219.039C197.697 219.178 197.75 219.31 197.845 219.408C197.94 219.506 198.069 219.561 198.204 219.561V219.561Z" fill="white"/>
<path d="M214.089 243.335C214.223 243.335 214.352 243.28 214.447 243.182C214.542 243.085 214.596 242.952 214.596 242.814C214.596 242.675 214.542 242.543 214.447 242.445C214.352 242.347 214.223 242.292 214.089 242.292C213.954 242.292 213.825 242.347 213.73 242.445C213.635 242.543 213.581 242.675 213.581 242.814C213.581 242.952 213.635 243.085 213.73 243.182C213.825 243.28 213.954 243.335 214.089 243.335V243.335Z" fill="white"/>
<path d="M71.491 301.884C71.6255 301.884 71.7545 301.829 71.8497 301.732C71.9448 301.634 71.9982 301.501 71.9982 301.363C71.9982 301.225 71.9448 301.092 71.8497 300.994C71.7545 300.897 71.6255 300.842 71.491 300.842C71.3564 300.842 71.2274 300.897 71.1323 300.994C71.0371 301.092 70.9837 301.225 70.9837 301.363C70.9837 301.501 71.0371 301.634 71.1323 301.732C71.2274 301.829 71.3564 301.884 71.491 301.884Z" fill="white"/>
<path d="M99.4592 282.013C99.5938 282.013 99.7228 281.958 99.818 281.861C99.9131 281.763 99.9665 281.63 99.9665 281.492C99.9665 281.354 99.9131 281.221 99.818 281.123C99.7228 281.026 99.5938 280.971 99.4592 280.971C99.3247 280.971 99.1957 281.026 99.1006 281.123C99.0054 281.221 98.952 281.354 98.952 281.492C98.952 281.63 99.0054 281.763 99.1006 281.861C99.1957 281.958 99.3247 282.013 99.4592 282.013Z" fill="white"/>
<path d="M106.713 197.914C106.848 197.914 106.977 197.859 107.072 197.761C107.167 197.663 107.221 197.531 107.221 197.392C107.221 197.254 107.167 197.121 107.072 197.024C106.977 196.926 106.848 196.871 106.713 196.871C106.579 196.871 106.45 196.926 106.355 197.024C106.26 197.121 106.206 197.254 106.206 197.392C106.206 197.531 106.26 197.663 106.355 197.761C106.45 197.859 106.579 197.914 106.713 197.914V197.914Z" fill="white"/>
<defs>
<linearGradient id="paint0_linear" x1="318.606" y1="240.002" x2="-3.53304" y2="240.002" gradientUnits="userSpaceOnUse">
<stop stop-color="#895AA5"/>
<stop offset="0.11" stop-color="#744D98"/>
<stop offset="0.33" stop-color="#3D2C78"/>
<stop offset="0.34" stop-color="#3A2A76"/>
<stop offset="0.46" stop-color="#322669"/>
<stop offset="0.87" stop-color="#1A1B41"/>
<stop offset="1" stop-color="#1A1B41"/>
</linearGradient>
<linearGradient id="paint1_linear" x1="4185.01" y1="2950.24" x2="4297.33" y2="3151.96" gradientUnits="userSpaceOnUse">
<stop stop-color="#895AA5"/>
<stop offset="0.11" stop-color="#744D98"/>
<stop offset="0.33" stop-color="#3D2C78"/>
<stop offset="0.34" stop-color="#3A2A76"/>
<stop offset="0.46" stop-color="#322669"/>
<stop offset="0.87" stop-color="#1A1B41"/>
<stop offset="1" stop-color="#1A1B41"/>
</linearGradient>
<linearGradient id="paint2_linear" x1="4185.01" y1="2950.24" x2="4297.33" y2="3151.96" gradientUnits="userSpaceOnUse">
<stop stop-color="#895AA5"/>
<stop offset="0.11" stop-color="#744D98"/>
<stop offset="0.33" stop-color="#3D2C78"/>
<stop offset="0.34" stop-color="#3A2A76"/>
<stop offset="0.46" stop-color="#322669"/>
<stop offset="0.87" stop-color="#1A1B41"/>
<stop offset="1" stop-color="#1A1B41"/>
</linearGradient>
</defs>
</svg>
