<svg width="400" height="400" viewBox="0 0 400 400" fill="none" xmlns="http://www.w3.org/2000/svg">
<path d="M128.588 165.795C128.588 170.94 129.02 175.111 129.777 178.17C130.641 181.229 131.722 184.566 133.236 188.181C133.776 189.294 133.992 190.406 133.992 191.379C133.992 192.77 133.344 194.16 131.939 195.551L125.129 201.39C124.156 202.225 123.183 202.642 122.318 202.642C121.238 202.642 120.157 201.947 119.076 200.695C117.562 198.61 116.265 196.385 115.184 194.16C114.103 191.796 113.023 189.155 111.834 185.957C103.402 198.749 92.8094 205.145 80.0546 205.145C70.9749 205.145 63.7328 201.808 58.4363 195.133C53.1398 188.459 50.4375 179.561 50.4375 168.437C50.4375 156.618 53.6802 147.024 60.2738 139.794C66.8674 132.564 75.6228 128.949 86.7563 128.949C90.4314 128.949 94.2146 129.366 98.214 130.061C102.213 130.756 106.321 131.869 110.645 133.12V122.97C110.645 112.403 108.915 105.033 105.564 100.723C102.105 96.4127 96.2683 94.327 87.9453 94.327C84.1621 94.327 80.2708 94.8832 76.2714 96.1346C72.272 97.386 68.3807 98.9155 64.5975 100.862C62.868 101.835 61.5709 102.392 60.8143 102.67C60.0577 102.948 59.5172 103.087 59.0848 103.087C57.5715 103.087 56.8149 101.696 56.8149 98.7764V91.9633C56.8149 89.7386 57.0311 88.0701 57.5715 87.0968C58.112 86.1235 59.0848 85.1502 60.5981 84.1769C64.3813 81.6741 68.9212 79.5884 74.2177 77.9199C79.5142 76.1123 85.1349 75.2781 91.08 75.2781C103.943 75.2781 113.347 79.0323 119.4 86.5406C125.345 94.0489 128.372 105.451 128.372 120.745V165.795H128.588ZM84.7025 186.93C88.2696 186.93 91.9447 186.096 95.836 184.427C99.7273 182.759 103.186 179.7 106.105 175.528C107.834 172.887 109.131 169.967 109.78 166.63C110.428 163.293 110.861 159.26 110.861 154.533V148.693C107.726 147.72 104.375 146.885 100.916 146.329C97.4574 145.773 94.1065 145.495 90.7557 145.495C83.5135 145.495 78.217 147.303 74.65 151.057C71.083 154.811 69.3535 160.095 69.3535 167.047C69.3535 173.582 70.6506 178.448 73.3529 181.785C75.9471 185.261 79.7303 186.93 84.7025 186.93V186.93ZM171.5 201.947C169.554 201.947 168.257 201.529 167.393 200.556C166.528 199.722 165.771 197.775 165.123 195.133L139.721 87.6529C139.073 84.8721 138.748 83.0645 138.748 82.0912C138.748 79.8665 139.613 78.6151 141.343 78.6151H151.936C153.989 78.6151 155.394 79.0323 156.151 80.0056C157.016 80.8398 157.664 82.7864 158.313 85.4283L176.472 177.475L193.335 85.4283C193.875 82.6474 194.524 80.8398 195.388 80.0056C196.253 79.1713 197.766 78.6151 199.712 78.6151H208.359C210.413 78.6151 211.818 79.0323 212.683 80.0056C213.548 80.8398 214.304 82.7864 214.737 85.4283L231.815 178.587L250.515 85.4283C251.164 82.6474 251.92 80.8398 252.677 80.0056C253.542 79.1713 254.947 78.6151 256.893 78.6151H266.945C268.675 78.6151 269.647 79.7275 269.647 82.0912C269.647 82.7864 269.539 83.4816 269.431 84.3159C269.323 85.1502 269.107 86.2625 268.675 87.792L242.624 195.273C241.976 198.053 241.219 199.861 240.355 200.695C239.49 201.529 238.085 202.086 236.247 202.086H226.951C224.897 202.086 223.492 201.669 222.627 200.695C221.763 199.722 221.006 197.914 220.574 195.133L203.82 105.45L187.173 194.994C186.633 197.775 185.984 199.583 185.12 200.556C184.255 201.529 182.742 201.947 180.796 201.947H171.5V201.947ZM310.398 205.701C304.777 205.701 299.156 204.867 293.752 203.198C288.347 201.529 284.132 199.722 281.321 197.636C279.592 196.385 278.403 194.994 277.97 193.743C277.538 192.492 277.322 191.101 277.322 189.85V182.759C277.322 179.839 278.187 178.448 279.808 178.448C280.456 178.448 281.105 178.587 281.754 178.865C282.402 179.143 283.375 179.7 284.456 180.256C288.131 182.341 292.13 184.01 296.346 185.122C300.67 186.235 304.885 186.791 309.209 186.791C316.019 186.791 321.315 185.261 324.99 182.202C328.665 179.143 330.611 174.694 330.611 168.993C330.611 165.1 329.638 161.902 327.693 159.26C325.747 156.618 322.072 154.255 316.775 152.03L301.102 145.773C293.211 142.575 287.374 137.848 283.807 131.591C280.24 125.473 278.403 118.66 278.403 111.429C278.403 105.59 279.376 100.445 281.321 95.9956C283.267 91.5462 285.861 87.6529 289.104 84.594C292.347 81.396 296.022 79.0323 300.345 77.3637C304.669 75.6952 309.209 75 313.965 75C316.343 75 318.829 75.139 321.207 75.5562C323.693 75.9733 325.963 76.5295 328.233 77.0857C330.395 77.7809 332.449 78.4761 334.394 79.3103C336.34 80.1446 337.853 80.9789 338.934 81.8131C340.447 82.9255 341.528 84.0378 342.177 85.2892C342.825 86.4016 343.15 87.931 343.15 89.8776V96.4127C343.15 99.3326 342.285 100.862 340.664 100.862C339.799 100.862 338.394 100.306 336.556 99.1935C330.395 95.5784 323.477 93.7709 315.802 93.7709C309.641 93.7709 304.777 95.0222 301.426 97.6641C298.075 100.306 296.346 104.338 296.346 110.039C296.346 113.932 297.427 117.269 299.589 119.911C301.751 122.553 305.75 125.195 311.479 127.558L326.828 133.815C334.61 137.013 340.231 141.463 343.582 147.164C346.933 152.864 348.554 159.399 348.554 166.63C348.554 172.608 347.581 178.031 345.744 182.759C343.798 187.486 341.204 191.657 337.853 194.994C334.502 198.471 330.503 200.973 325.855 202.781C320.991 204.727 315.911 205.701 310.398 205.701V205.701Z" fill="black"/>
<path d="M330.828 273.276C295.265 307.063 243.598 325 199.172 325C136.911 325 80.8117 295.384 38.4398 246.162C35.089 242.269 38.1155 236.985 42.1149 240.044C87.9458 274.249 144.478 294.967 202.955 294.967C242.409 294.967 285.753 284.399 325.639 262.709C331.584 259.232 336.665 267.714 330.828 273.276Z" fill="black"/>
<path d="M345.636 251.585C341.096 244.076 315.587 247.97 304.021 249.777C300.562 250.333 300.021 246.44 303.156 243.52C323.477 225.166 356.878 230.45 360.769 236.568C364.66 242.825 359.688 285.789 340.664 306.368C337.745 309.566 334.935 307.897 336.232 303.726C340.556 289.961 350.176 258.954 345.636 251.585V251.585Z" fill="black"/>
</svg>
