<svg width="400" height="400" viewBox="0 0 400 400" fill="none" xmlns="http://www.w3.org/2000/svg">
<path d="M324.579 148.534C324.577 144.342 323.568 140.638 321.528 137.458C319.524 134.332 316.523 131.711 312.498 129.64C279.27 112.611 246.011 95.6344 212.794 78.5883C203.839 73.9933 195.156 74.1608 186.268 78.8218C173.042 85.7543 106.826 119.472 87.0947 129.63C78.9688 133.811 75.0146 140.21 75.0127 148.527C75 182.772 75.0127 217.017 75 251.264C75.002 255.364 75.9678 258.996 77.918 262.128C79.9229 265.349 82.9658 268.042 87.084 270.16C106.816 280.318 173.041 314.034 186.264 320.968C195.156 325.631 203.839 325.798 212.797 321.201C246.015 304.154 279.276 287.179 312.509 270.15C316.627 268.032 319.67 265.338 321.675 262.119C323.622 258.988 324.59 255.355 324.592 251.254C324.592 251.254 324.592 182.781 324.579 148.534Z" fill="#5C8DBC"/>
<path d="M200.176 199.562L77.916 262.128C79.9209 265.349 82.9639 268.042 87.082 270.16C106.814 280.318 173.039 314.034 186.262 320.968C195.154 325.631 203.837 325.798 212.795 321.201C246.013 304.154 279.274 287.179 312.507 270.15C316.625 268.032 319.668 265.338 321.673 262.119L200.176 199.562Z" fill="#1A4674"/>
<path d="M163.965 218.094C171.079 229.133 184.453 236.579 199.795 236.579C215.231 236.579 228.682 229.039 235.76 217.882L200.177 199.562L163.965 218.094Z" fill="#1A4674"/>
<path d="M324.577 148.534C324.575 144.342 323.567 140.637 321.527 137.458L200.176 199.561L321.673 262.119C323.62 258.988 324.588 255.355 324.59 251.254C324.59 251.254 324.59 182.781 324.577 148.534Z" fill="#1B598E"/>
<path d="M317.899 204.033H308.404V212.473H298.908V204.033H289.415V195.596H298.908V187.157H308.404V195.596H317.899V204.033ZM283.255 204.033H273.762V212.473H264.268V204.033H254.773V195.596H264.268V187.157H273.762V195.596H283.255V204.033Z" fill="white"/>
<path d="M235.761 217.881C228.683 229.038 215.232 236.578 199.796 236.578C184.454 236.578 171.08 229.133 163.966 218.094C160.392 212.555 158.515 206.28 158.522 199.895C158.522 179.635 177.002 163.212 199.796 163.212C215.039 163.212 228.343 170.564 235.492 181.49L271.567 163.027C257.229 141.027 230.458 126.227 199.796 126.227C154.019 126.227 116.91 159.209 116.91 199.895C116.91 213.242 120.905 225.759 127.888 236.556C142.19 258.672 169.037 273.563 199.796 273.563C230.611 273.563 257.5 258.612 271.782 236.431L235.761 217.881Z" fill="white"/>
</svg>
