<svg width="400" height="400" viewBox="0 0 400 400" fill="none" xmlns="http://www.w3.org/2000/svg">
<g clip-path="url(#clip0)">
<path fill-rule="evenodd" clip-rule="evenodd" d="M190.508 325V280.235C237.891 280.235 274.672 233.246 256.476 183.375C253.135 174.213 247.83 165.893 240.935 158.997C234.039 152.1 225.719 146.795 216.558 143.452C166.687 125.39 119.698 162.037 119.698 209.42H75.0625C75.0625 133.902 148.102 75.0003 227.289 99.7344C261.847 110.605 289.463 138.086 300.199 172.648C324.937 251.961 266.165 325 190.508 325Z" fill="#0080FF"/>
<path fill-rule="evenodd" clip-rule="evenodd" d="M146.139 280.365H190.64V235.864H146.143L146.139 280.365ZM111.846 314.658H146.134V280.37H111.846V314.658ZM83.1777 280.37H111.846V251.697H83.1777V280.37Z" fill="#0080FF"/>
</g>
<defs>
<clipPath id="clip0">
<rect width="250" height="250" fill="white" transform="translate(75 75)"/>
</clipPath>
</defs>
</svg>
