<svg width="400" height="400" viewBox="0 0 400 400" fill="none" xmlns="http://www.w3.org/2000/svg">
<path fill-rule="evenodd" clip-rule="evenodd" d="M112.712 277.292V258.27C112.712 255.77 114.025 253.762 116.198 253.762H116.8C118.973 253.762 120.279 255.773 120.279 258.27V298.317C120.279 308.083 116.227 315.853 109.164 320.803C105.929 323.085 102.236 324.284 98.4757 324.274H96.9747C88.7696 324.274 82.2511 319.446 78.0861 311.044C76.1666 307.193 75.1596 302.795 75.172 298.317V296.532C75.172 286.763 79.2267 278.997 86.2833 274.038C89.5179 271.751 93.2129 270.552 96.9747 270.567H98.4757C104.028 270.567 108.739 273.13 112.712 277.292ZM82.7384 297.423C82.7384 304.477 85.6105 309.781 90.8028 313.164C92.9025 314.531 95.1818 315.266 97.5773 315.266C103.394 315.266 107.708 311.999 110.684 306.132C112.067 303.402 112.712 300.415 112.712 297.24C112.712 291.125 110.28 286.353 106.141 282.808C103.631 280.66 100.806 279.582 97.7247 279.582C91.3849 279.582 86.8224 283.395 84.0841 290.168C83.1603 292.459 82.7384 294.89 82.7384 297.423ZM146.531 270.567H147.58C156.348 270.567 163.016 275.63 167.241 284.742C168.931 288.386 169.835 292.365 169.835 296.532V298.317C169.835 308.083 165.79 315.864 158.717 320.805C155.442 323.091 151.825 324.274 148.03 324.274H146.531C138.326 324.274 131.806 319.446 127.643 311.044C125.722 307.193 124.714 302.795 124.726 298.317V296.532C124.726 286.762 128.797 279.022 135.836 274.04C139.109 271.725 142.729 270.567 146.531 270.567ZM132.293 297.423C132.293 304.27 135.115 309.308 139.974 312.85C142.255 314.513 144.768 315.266 147.433 315.266C153.116 315.266 157.318 311.835 160.241 306.125C161.636 303.402 162.267 300.411 162.267 297.24C162.267 290.873 159.691 286.009 155.286 282.484C152.873 280.55 150.187 279.582 147.28 279.582C140.941 279.582 136.378 283.395 133.641 290.168C132.715 292.459 132.293 294.89 132.293 297.423ZM201.293 280.302C200.151 279.665 198.012 279.453 196.777 279.397C190.455 279.114 185.881 283.352 183.197 289.992C182.271 292.282 181.848 294.706 181.848 297.24C181.848 304.956 185.251 310.359 191.036 313.652C193.15 314.855 195.878 315.082 198.188 315.082C200.219 315.082 203.09 313.601 204.893 312.582L205.205 312.405H206.605L206.759 312.442C208.48 312.869 209.778 314.167 209.778 316.372V317.263C209.778 322.748 201.359 324.004 198.146 324.271C186.808 325.205 178.328 317.792 175.096 304.918C174.534 302.682 174.281 300.462 174.281 298.132V296.35C174.281 286.581 178.354 278.843 185.392 273.866C188.664 271.552 192.283 270.39 196.085 270.39H197.585C201.618 270.39 205.333 271.753 208.663 274.461L208.937 274.686L209.109 275.026C209.469 275.735 209.778 276.556 209.778 277.4V278.292C209.778 280.591 208.333 281.828 206.589 282.228L206.444 282.258H205.997C204.868 282.258 202.301 280.867 201.293 280.302ZM225.838 286.402C228.777 282.898 231.727 279.401 234.71 275.955C235.541 274.993 238.689 270.924 239.928 270.924H241.283L241.438 270.963C243.164 271.389 244.457 272.69 244.457 274.899V275.79C244.457 277.296 242.975 279.047 242.157 280.078C240.419 282.272 238.589 284.394 236.81 286.542L227.667 297.592C231.604 302.288 235.536 306.989 239.441 311.721C240.523 313.028 241.598 314.344 242.664 315.67C243.04 316.14 243.595 316.726 243.91 317.379C244.249 317.99 244.457 318.679 244.457 319.415V320.345L244.413 320.56C243.988 322.616 242.893 324.274 240.98 324.274H240.377C239.125 324.274 237.711 322.588 236.854 321.624C235.086 319.641 233.38 317.555 231.648 315.529L225.838 308.739V319.591C225.838 322.09 224.524 324.099 222.353 324.099H221.757C219.583 324.099 218.271 322.09 218.271 319.591V258.444C218.271 255.945 219.584 253.945 221.757 253.945H222.353C224.524 253.945 225.838 255.945 225.838 258.444V286.402ZM320.151 270.924H320.903C323.173 270.924 324.688 272.745 324.688 275.432C324.688 279.161 321.693 280.116 319.102 280.116C315.703 280.116 312.458 282.565 310.115 285.312C307.194 288.741 305.916 293.132 305.916 297.959V319.768C305.916 322.267 304.605 324.274 302.43 324.274H301.832C299.657 324.274 298.347 322.268 298.347 319.768V296.707C298.347 287.851 301.968 280.623 308.005 275.553C311.609 272.524 315.738 270.926 320.151 270.926V270.924ZM266.368 314.144C269.122 315.289 272.262 315.125 275.087 314.54C276.532 313.808 280.228 311.889 281.587 312.17L281.799 312.213L281.994 312.327C282.824 312.806 283.616 313.484 284.04 314.49C285.03 316.846 284.555 319.215 282.609 320.553L281.962 320.999C274.784 325.93 267.15 325.247 259.994 320.641C256.573 318.439 253.956 315.171 252.025 311.187L251.574 310.255C246.966 300.755 247.588 290.761 252.785 281.727C254.579 278.604 256.924 276.192 259.665 274.305L260.702 273.592C267.462 268.947 274.707 269.265 281.65 273.343C285.383 275.535 288.407 278.803 290.491 283.101L290.866 283.875C292.38 286.998 290.419 289.719 288.395 291.579C286.045 293.736 283.673 296.334 281.421 298.647C276.4 303.808 271.386 308.98 266.368 314.144ZM259.869 308.71C265.484 302.979 271.102 297.242 276.702 291.486C278.616 289.521 280.715 287.482 282.613 285.416C281.09 283.13 278.545 281.483 276.383 280.5C272.018 278.521 267.714 279.186 263.711 281.936C258.472 285.538 256.24 291.273 256.436 298.41C256.514 301.221 257.149 303.93 258.401 306.321C258.843 307.164 259.336 307.956 259.869 308.71ZM219.031 128.189H241.361V155.364H252.651C257.866 155.364 263.229 154.259 268.166 152.267C270.593 151.287 273.316 149.925 275.709 148.21C272.557 143.311 270.947 137.125 270.475 131.027C269.83 122.732 271.236 111.937 275.951 105.445L278.299 102.213L281.096 104.89C288.138 111.625 294.061 121.037 295.105 131.767C303.584 128.797 313.54 129.5 321.014 134.635L324.08 136.741L322.467 140.492C316.146 155.177 302.93 159.728 290.01 158.922C270.677 216.247 228.586 243.386 177.552 243.386C151.185 243.386 126.995 231.653 113.22 203.804L112.994 203.351L110.987 198.489C106.331 186.231 104.784 172.802 105.833 159.384L106.149 155.364H125.244V128.189H147.573V101.606H192.234V75.0225H219.031V128.189Z" fill="#364548"/>
<path fill-rule="evenodd" clip-rule="evenodd" d="M291.378 138.244C292.875 124.391 284.167 113.51 278.767 108.344C272.543 116.91 271.576 139.359 281.34 148.811C275.891 154.572 264.409 159.795 252.652 159.795H109.542C108.399 174.405 110.554 187.859 115.475 199.374L117.103 202.92C118.133 205.002 119.26 207.014 120.477 208.947C126.36 209.397 131.785 209.552 136.748 209.421H136.75C146.503 209.166 154.461 207.794 160.492 205.306C160.919 205.148 161.38 205.194 161.778 205.433C162.177 205.673 162.482 206.088 162.628 206.59C162.774 207.093 162.751 207.643 162.562 208.125C162.374 208.607 162.035 208.983 161.618 209.173C160.815 209.505 159.979 209.814 159.116 210.109H159.113C154.364 211.723 149.271 212.809 142.701 213.292C143.092 213.3 142.295 213.361 142.293 213.361C142.069 213.379 141.788 213.417 141.563 213.431C138.978 213.604 136.187 213.64 133.333 213.64C130.212 213.64 127.139 213.571 123.702 213.361L123.614 213.431C135.538 229.386 154.183 238.956 177.554 238.956C227.015 238.956 268.968 212.853 287.546 154.254C300.726 155.864 313.393 151.862 319.154 138.472C309.977 132.167 298.174 134.177 291.378 138.244Z" fill="#22A0C8"/>
<path fill-rule="evenodd" clip-rule="evenodd" d="M291.378 138.244C292.875 124.391 284.167 113.51 278.766 108.344C272.543 116.91 271.576 139.359 281.34 148.811C275.89 154.572 264.409 159.795 252.652 159.795H118.016C117.432 182.17 124.407 199.154 136.747 209.421H136.75C146.503 209.166 154.461 207.794 160.492 205.306C160.918 205.148 161.38 205.194 161.778 205.433C162.177 205.673 162.481 206.088 162.628 206.59C162.774 207.093 162.75 207.643 162.562 208.125C162.373 208.607 162.035 208.983 161.618 209.173C160.815 209.505 159.979 209.814 159.116 210.109H159.113C154.364 211.723 148.834 212.949 142.263 213.431C142.262 213.431 142.104 213.251 142.102 213.251C158.935 223.53 183.343 223.493 211.326 210.697C242.703 196.346 271.901 169.007 292.273 137.737C291.967 137.902 291.668 138.071 291.378 138.244Z" fill="#37B1D9"/>
<path fill-rule="evenodd" clip-rule="evenodd" d="M109.811 177.546C110.699 185.372 112.623 192.7 115.475 199.374L117.103 202.92C118.133 205.002 119.26 207.014 120.477 208.947C126.361 209.397 131.786 209.552 136.75 209.421C146.503 209.166 154.461 207.794 160.492 205.306C160.919 205.148 161.38 205.194 161.778 205.433C162.177 205.673 162.482 206.088 162.628 206.59C162.774 207.092 162.751 207.643 162.562 208.125C162.374 208.607 162.035 208.982 161.618 209.173C160.815 209.505 159.979 209.814 159.116 210.108H159.113C154.364 211.723 148.863 212.879 142.293 213.362C142.067 213.379 141.674 213.382 141.446 213.397C138.862 213.569 136.1 213.675 133.245 213.675C130.125 213.675 126.934 213.604 123.499 213.396C135.423 229.351 154.183 238.955 177.554 238.955C219.897 238.955 256.737 219.822 278.119 177.546H109.811Z" fill="#1B81A5"/>
<path fill-rule="evenodd" clip-rule="evenodd" d="M119.303 177.546C121.834 191.288 127.917 202.075 136.748 209.421C146.501 209.166 154.459 207.794 160.49 205.306C160.917 205.148 161.378 205.194 161.776 205.433C162.175 205.673 162.48 206.088 162.626 206.59C162.772 207.092 162.749 207.643 162.56 208.125C162.372 208.607 162.033 208.982 161.616 209.173C160.813 209.505 159.978 209.814 159.114 210.108H159.111C154.362 211.723 148.745 212.879 142.174 213.362C159.006 223.64 183.343 223.492 211.324 210.697C228.252 202.954 244.544 191.428 259.16 177.546H119.303Z" fill="#1D91B4"/>
<path fill-rule="evenodd" clip-rule="evenodd" d="M128.963 132.62H148.316V155.659H128.963V132.62ZM130.575 134.54H132.103V153.74H130.575V134.54ZM133.446 134.54H135.035V153.74H133.447V134.54H133.446ZM136.378 134.54H137.967V153.74H136.378V134.54ZM139.312 134.54H140.899V153.74H139.312V134.54ZM142.244 134.54H143.832V153.74H142.244V134.54ZM145.176 134.54H146.704V153.74H145.176V134.54ZM151.293 106.036H170.647V129.075H151.292V106.036H151.293ZM152.906 107.957H154.433V127.155H152.906V107.957ZM155.777 107.957H157.365V127.155H155.778V107.957H155.777ZM158.709 107.957H160.297V127.155H158.709V107.957ZM161.642 107.957H163.229V127.155H161.642V107.957ZM164.574 107.957H166.163V127.155H164.574V107.957ZM167.506 107.957H169.035V127.155H167.506V107.957Z" fill="#23A3C2"/>
<path fill-rule="evenodd" clip-rule="evenodd" d="M151.296 132.62H170.65V155.66H151.295V132.62H151.296ZM152.909 134.541H154.436V153.741H152.909V134.541ZM155.78 134.541H157.368V153.741H155.781V134.541H155.78ZM158.712 134.541H160.3V153.741H158.712V134.541ZM161.645 134.541H163.232V153.741H161.645V134.541ZM164.577 134.541H166.166V153.741H164.577V134.541ZM167.509 134.541H169.038V153.741H167.509V134.541Z" fill="#34BBDE"/>
<path fill-rule="evenodd" clip-rule="evenodd" d="M173.625 132.62H192.979V155.66H173.625V132.62ZM175.237 134.541H176.764V153.741H175.237V134.541ZM178.108 134.541H179.696V153.741H178.108V134.541ZM181.041 134.541H182.629V153.741H181.041V134.541ZM183.974 134.541H185.562V153.741H183.974V134.541ZM186.905 134.541H188.495V153.741H186.905V134.541ZM189.838 134.541H191.365V153.741H189.838V134.541Z" fill="#23A3C2"/>
<path fill-rule="evenodd" clip-rule="evenodd" d="M173.625 106.036H192.979V129.075H173.625V106.036ZM175.237 107.957H176.764V127.155H175.237V107.957ZM178.108 107.957H179.696V127.155H178.108V107.957ZM181.041 107.957H182.629V127.155H181.041V107.957ZM183.974 107.957H185.562V127.155H183.974V107.957ZM186.905 107.957H188.495V127.155H186.905V107.957ZM189.838 107.957H191.365V127.155H189.838V107.957ZM195.955 132.62H215.309V155.659H195.955V132.62ZM197.568 134.54H199.095V153.74H197.568V134.54ZM200.439 134.54H202.027V153.74H200.439V134.54ZM203.371 134.54H204.959V153.74H203.371V134.54ZM206.304 134.54H207.893V153.74H206.304V134.54ZM209.236 134.54H210.825V153.74H209.236V134.54ZM212.169 134.54H213.696V153.74H212.169V134.54Z" fill="#34BBDE"/>
<path fill-rule="evenodd" clip-rule="evenodd" d="M195.955 106.036H215.309V129.075H195.955V106.036ZM197.568 107.957H199.095V127.155H197.568V107.957ZM200.439 107.957H202.027V127.155H200.439V107.957ZM203.371 107.957H204.959V127.155H203.371V107.957ZM206.304 107.957H207.893V127.155H206.304V107.957ZM209.236 107.957H210.825V127.155H209.236V107.957ZM212.169 107.957H213.696V127.155H212.169V107.957Z" fill="#23A3C2"/>
<path fill-rule="evenodd" clip-rule="evenodd" d="M195.955 79.4531H215.309V102.495H195.955V79.4531ZM197.568 81.3725H199.095V100.574H197.568V81.3714V81.3725ZM200.439 81.3725H202.027V100.574H200.439V81.3714V81.3725ZM203.371 81.3725H204.959V100.574H203.371V81.3714V81.3725ZM206.304 81.3725H207.893V100.574H206.304V81.3714V81.3725ZM209.236 81.3725H210.825V100.574H209.236V81.3714V81.3725ZM212.169 81.3725H213.696V100.574H212.169V81.3714V81.3725Z" fill="#34BBDE"/>
<path fill-rule="evenodd" clip-rule="evenodd" d="M218.287 132.62H237.641V155.66H218.287V132.62ZM219.898 134.541H221.427V153.741H219.899V134.541H219.898ZM222.77 134.541H224.358V153.741H222.77V134.541H222.77ZM225.703 134.541H227.292V153.741H225.703V134.541ZM228.635 134.541H230.224V153.741H228.635V134.541ZM231.568 134.541H233.156V153.741H231.568V134.541ZM234.5 134.541H236.027V153.741H234.5V134.541Z" fill="#23A3C2"/>
<path fill-rule="evenodd" clip-rule="evenodd" d="M169.439 193.014C170.146 193.003 170.848 193.159 171.504 193.474C172.16 193.788 172.757 194.255 173.261 194.846C173.764 195.438 174.164 196.142 174.437 196.919C174.709 197.696 174.85 198.53 174.85 199.372C174.849 200.214 174.709 201.047 174.436 201.824C174.163 202.601 173.763 203.305 173.259 203.897C172.756 204.488 172.158 204.954 171.502 205.268C170.846 205.583 170.144 205.738 169.437 205.727C168.033 205.704 166.693 205.024 165.708 203.834C164.722 202.644 164.17 201.041 164.17 199.369C164.17 197.698 164.723 196.095 165.709 194.905C166.695 193.716 168.035 193.037 169.439 193.014Z" fill="#D3ECEC"/>
<path fill-rule="evenodd" clip-rule="evenodd" d="M169.438 194.817C169.926 194.817 170.392 194.927 170.821 195.125C170.525 195.33 170.293 195.646 170.162 196.023C170.032 196.4 170.009 196.818 170.097 197.213C170.186 197.607 170.381 197.955 170.653 198.204C170.925 198.453 171.258 198.589 171.601 198.59C172.191 198.59 172.704 198.2 172.97 197.624C173.284 198.526 173.347 199.524 173.148 200.472C172.949 201.419 172.5 202.265 171.866 202.885C171.232 203.505 170.448 203.866 169.629 203.915C168.809 203.963 167.999 203.697 167.316 203.155C166.634 202.612 166.116 201.823 165.84 200.904C165.563 199.985 165.542 198.984 165.78 198.049C166.017 197.115 166.501 196.296 167.16 195.714C167.819 195.132 168.617 194.818 169.438 194.817ZM75 179.842H323.366C317.959 178.21 306.257 176.003 308.187 167.565C298.353 181.112 274.639 177.069 268.653 170.39C261.989 181.898 223.19 177.523 220.484 168.558C212.129 180.232 186.239 180.232 177.884 168.558C175.176 177.523 136.378 181.898 129.713 170.389C123.729 177.069 100.016 181.112 90.1816 167.567C92.1113 176.003 80.4092 178.21 75 179.843" fill="#364548"/>
<path fill-rule="evenodd" clip-rule="evenodd" d="M183.628 238.817C170.405 231.347 163.148 221.192 159.11 210.108C154.198 211.777 148.295 212.844 141.435 213.302C138.851 213.474 136.132 213.562 133.28 213.562C129.991 213.562 126.525 213.446 122.887 213.217C135.013 227.645 149.93 238.752 177.551 238.954C179.59 238.954 181.613 238.908 183.628 238.817Z" fill="#BDD9D7"/>
<path fill-rule="evenodd" clip-rule="evenodd" d="M164.024 220.337C162.195 217.381 160.421 213.665 159.116 210.106C154.204 211.777 148.299 212.844 141.438 213.304C146.15 216.348 152.89 219.17 164.025 220.337" fill="#D3ECEC"/>
</svg>
