<svg width="400" height="400" viewBox="0 0 400 400" fill="none" xmlns="http://www.w3.org/2000/svg">
<g clip-path="url(#clip0)">
<path d="M127.084 184.375V220.833H137.501C147.813 220.833 156.98 225.938 162.709 233.75C171.042 225.833 182.292 220.833 194.792 220.833H205.209C217.709 220.833 228.959 225.833 237.292 233.75C243.021 225.938 252.188 220.833 262.501 220.833C266.146 220.833 269.688 221.458 272.917 222.708V184.375H127.084Z" fill="#FFC107"/>
<path d="M200.001 210.416C192.532 210.416 127.084 209.687 127.084 184.375V142.708H272.917V184.375C272.917 209.687 207.469 210.416 200.001 210.416Z" fill="#FFD54F"/>
<path d="M200.001 168.75C192.532 168.75 127.084 168.021 127.084 142.709V101.042H272.917V142.709C272.917 168.021 207.469 168.75 200.001 168.75Z" fill="#FFC107"/>
<path d="M200.001 127.083C192.532 127.083 127.084 126.354 127.084 101.042C127.084 75.7292 192.532 75 200.001 75C207.469 75 272.917 75.7292 272.917 101.042C272.917 126.354 207.469 127.083 200.001 127.083Z" fill="#FFD54F"/>
<path d="M127.084 184.375V220.833H137.501C147.813 220.833 156.98 225.938 162.709 233.75C171.042 225.833 182.292 220.833 194.792 220.833H200.001V210.417C192.532 210.417 127.084 209.688 127.084 184.375Z" fill="#DEA806"/>
<path d="M127.084 142.708V184.375C127.084 209.687 192.532 210.416 200.001 210.416V168.75C192.532 168.75 127.084 168.021 127.084 142.708Z" fill="#DEB945"/>
<path d="M127.084 101.042V142.709C127.084 168.021 192.532 168.75 200.001 168.75V127.084C192.532 127.084 127.084 126.354 127.084 101.042Z" fill="#DEA806"/>
<path d="M200.001 75C192.532 75 127.084 75.7292 127.084 101.042C127.084 126.354 192.532 127.083 200.001 127.083V75Z" fill="#DEB945"/>
<path d="M231.25 267.709C231.25 253.354 219.573 241.667 205.208 241.667H194.792C180.427 241.667 168.75 253.354 168.75 267.709V298.959C168.75 313.313 180.427 325 194.792 325H205.208C208.708 325 212.042 324.282 215.094 323.032C216.844 324.219 218.802 325 220.833 325C223.5 325 226.167 323.98 228.198 321.948C231.792 318.355 232.021 312.896 229.281 308.844C230.542 305.792 231.25 302.459 231.25 298.959V267.709ZM189.583 298.959V267.709C189.583 264.834 191.927 262.5 194.792 262.5H205.208C208.073 262.5 210.417 264.834 210.417 267.709V290.157C206.417 287.802 201.271 288.157 197.844 291.594C194.417 295.032 194.052 300.177 196.406 304.167H194.792C191.927 304.167 189.583 301.834 189.583 298.959Z" fill="#2196F3"/>
<path d="M293.751 325H262.501C256.74 325 252.084 320.334 252.084 314.584V252.084C252.084 246.334 256.74 241.667 262.501 241.667C268.261 241.667 272.917 246.334 272.917 252.084V304.167H293.751C299.511 304.167 304.167 308.834 304.167 314.584C304.167 320.334 299.511 325 293.751 325Z" fill="#2196F3"/>
<path d="M121.876 325H106.251C100.49 325 95.834 320.334 95.834 314.584C95.834 308.834 100.49 304.167 106.251 304.167H121.876C124.74 304.167 127.084 301.834 127.084 298.959C127.084 296.084 124.74 293.75 121.876 293.75C107.511 293.75 95.834 282.063 95.834 267.709C95.834 253.354 107.511 241.667 121.876 241.667H137.501C143.261 241.667 147.917 246.334 147.917 252.084C147.917 257.834 143.261 262.5 137.501 262.5H121.876C119.011 262.5 116.667 264.834 116.667 267.709C116.667 270.584 119.011 272.917 121.876 272.917C136.24 272.917 147.917 284.604 147.917 298.959C147.917 313.313 136.24 325 121.876 325Z" fill="#2196F3"/>
<path d="M231.25 283.989H210.417V290.166C208.729 289.177 206.833 288.656 204.948 288.656C202.375 288.656 199.823 289.614 197.833 291.593C194.406 295.031 194.042 300.177 196.396 304.166H194.792C191.927 304.166 189.583 301.833 189.583 298.958V283.989H168.75V298.958C168.75 313.312 180.427 325 194.792 325H205.208C208.708 325 212.042 324.281 215.094 323.031C216.844 324.218 218.802 325 220.833 325C223.5 325 226.167 323.979 228.198 321.948C231.792 318.354 232.021 312.895 229.281 308.843C230.542 305.791 231.25 302.458 231.25 298.958V283.989Z" fill="#1D83D4"/>
<path d="M272.917 283.989H252.084V314.583C252.084 320.333 256.74 325 262.501 325H293.751C299.511 325 304.167 320.333 304.167 314.583C304.167 308.833 299.511 304.166 293.751 304.166H272.917V283.989Z" fill="#1D83D4"/>
<path d="M143.167 283.989H101.563C106.334 289.937 113.667 293.75 121.876 293.75C124.74 293.75 127.084 296.083 127.084 298.958C127.084 301.833 124.74 304.166 121.876 304.166H106.251C100.49 304.166 95.834 308.833 95.834 314.583C95.834 320.333 100.49 325 106.251 325H121.876C136.24 325 147.917 313.312 147.917 298.958C147.917 293.385 146.157 288.218 143.167 283.989Z" fill="#1D83D4"/>
</g>
<defs>
<clipPath id="clip0">
<rect width="250" height="250" fill="white" transform="translate(75 75)"/>
</clipPath>
</defs>
</svg>
