<svg width="400" height="400" viewBox="0 0 400 400" fill="none" xmlns="http://www.w3.org/2000/svg">
<path d="M92.9439 170.551C92.4551 170.551 92.3329 170.167 92.5773 169.592L95.1437 164.415C95.3881 163.84 95.9991 163.456 96.4879 163.456H140.116C140.605 163.456 140.727 164.031 140.483 164.607L138.405 169.592C138.161 170.167 137.55 170.742 137.183 170.742L92.9439 170.551Z" fill="#2DBCAF"/>
<path d="M74.4888 188.191C74 188.191 73.8778 187.808 74.1222 187.233L76.6886 182.055C76.933 181.48 77.544 181.097 78.0329 181.097H133.76C134.249 181.097 134.493 181.672 134.371 182.247L133.393 186.849C133.271 187.616 132.782 188 132.293 188L74.4888 188.191Z" fill="#2DBCAF"/>
<path d="M104.063 205.833C103.574 205.833 103.452 205.258 103.696 204.682L105.407 199.889C105.652 199.314 106.141 198.738 106.629 198.738H131.071C131.56 198.738 131.804 199.314 131.804 200.08L131.56 204.682C131.56 205.449 131.071 206.025 130.704 206.025L104.063 205.833Z" fill="#2DBCAF"/>
<path d="M230.917 167.099C223.217 170.167 217.963 172.468 210.386 175.536C208.553 176.303 208.43 176.495 206.842 173.619C205.008 170.359 203.664 168.25 201.098 166.332C193.399 160.388 185.944 162.114 178.978 169.209C170.668 177.645 166.391 190.109 166.513 205.64C166.635 220.98 173.357 233.635 183.011 235.744C191.321 237.47 198.287 232.868 203.786 223.089C204.886 220.98 205.864 218.679 207.086 215.995C202.687 215.995 197.187 215.995 183.5 215.995C180.933 215.995 180.322 213.502 181.178 210.242C182.767 204.298 185.7 194.327 187.411 189.342C187.777 188.191 188.633 186.274 190.466 186.274C196.698 186.274 219.673 186.274 234.949 186.274C234.705 191.451 234.705 196.628 234.216 201.805C232.872 215.611 229.572 228.266 224.195 239.388C215.396 257.603 203.909 268.917 189.366 271.984C177.389 274.477 166.269 270.834 156.492 259.329C147.448 248.591 142.316 234.402 140.971 216.762C139.383 195.861 143.293 177.07 151.359 160.58C160.036 142.748 171.523 131.435 185.577 127.408C197.065 124.148 208.064 126.258 217.963 136.804C224.44 143.515 229.083 152.718 232.139 163.84C232.872 165.565 232.383 166.524 230.917 167.099Z" fill="#2DBCAF"/>
<path d="M271.365 273.135C260.244 272.751 250.101 267.766 241.546 256.261C234.336 246.482 229.814 234.019 228.348 219.254C226.148 197.587 229.937 178.412 238.247 161.347C247.168 142.939 257.922 133.352 272.465 129.325C284.93 125.874 296.662 127.791 307.294 139.104C316.949 149.459 322.937 163.456 324.526 181.864C326.603 207.749 321.837 228.841 310.472 246.866C302.406 259.713 292.507 267.766 281.142 271.409C277.842 272.368 274.543 272.56 271.365 273.135ZM300.451 195.669C300.328 193.177 300.328 191.259 300.084 189.342C297.884 170.359 286.763 159.621 275.154 163.84C263.788 167.866 256.456 179.179 253.767 197.203C251.567 212.16 256.211 227.307 265.01 233.443C271.732 238.045 278.453 237.47 284.93 232.293C294.585 224.431 299.84 212.16 300.451 195.669Z" fill="#2DBCAF"/>
</svg>
