<svg width="400" height="400" viewBox="0 0 400 400" fill="none" xmlns="http://www.w3.org/2000/svg">
<path d="M324.544 124.007L301.849 304.312L199.836 324.369L98.1046 304.339L75.4336 124.007H324.544Z" fill="#E44D26"/>
<path d="M199.99 309.038L282.422 292.831L301.815 138.752H199.99V309.038Z" fill="#F16529"/>
<path d="M155.871 182.986H199.989V160.869H121.789L122.535 166.803L130.2 227.751H199.989V205.634H158.722L155.871 182.986ZM162.9 238.81H131.594L135.963 273.537L199.845 286.114L199.989 286.086V263.075L199.852 263.1L165.12 256.449L162.9 238.81Z" fill="#EBEBEB"/>
<path d="M98.6113 75H114.46V86.1046H128.957V75H144.807V108.627H128.958V97.367H114.461V108.627H98.6123V75H98.6113ZM165.647 86.1517H151.697V75H195.457V86.1517H181.498V108.627H165.65V86.1517H165.649H165.647ZM202.402 75H218.927L229.092 86.8158L239.247 75H255.779V108.627H239.995V91.9598L229.092 103.916H228.818L217.908 91.9598V108.627H202.402V75ZM263.666 75H279.519V97.5125H301.806V108.627H263.665V75H263.666Z" fill="black"/>
<path d="M199.882 227.751H238.284L234.663 256.436L199.881 263.094V286.103L263.814 273.537L264.283 269.801L271.612 211.573L272.373 205.634H199.882V227.751ZM199.882 182.932V182.986H275.211L275.835 178.015L277.257 166.803L278.002 160.869H199.882V182.933V182.932Z" fill="white"/>
</svg>
