<svg width="400" height="400" viewBox="0 0 400 400" fill="none" xmlns="http://www.w3.org/2000/svg">
<path d="M155.606 268.261C155.606 268.261 142.719 273.806 164.777 275.683C191.501 277.938 205.158 277.616 234.607 273.491C234.607 273.491 242.35 277.083 253.162 280.195C187.146 301.132 103.753 278.982 155.606 268.261ZM147.539 240.938C147.539 240.938 133.085 248.856 155.16 250.545C183.706 252.725 206.249 252.903 245.259 247.345C245.259 247.345 250.655 251.392 259.139 253.606C179.32 270.878 90.4169 254.968 147.539 240.938Z" fill="#5382A1"/>
<path d="M215.547 194.592C231.814 208.45 211.273 220.921 211.273 220.921C211.273 220.921 252.576 205.143 233.608 185.384C215.892 166.959 202.305 157.803 275.855 126.238C275.855 126.238 160.406 147.575 215.547 194.591" fill="#E76F00"/>
<path d="M302.858 288.469C302.858 288.469 312.395 294.284 292.355 298.782C254.25 307.325 133.755 309.904 100.281 299.122C88.2492 295.25 110.814 289.874 117.912 288.745C125.314 287.557 129.544 287.779 129.544 287.779C116.163 280.803 43.0512 301.476 92.4077 307.396C227.009 323.549 337.772 300.123 302.858 288.469ZM161.802 212.63C161.802 212.63 100.512 223.403 140.099 227.314C156.813 228.97 190.133 228.596 221.17 226.671C246.535 225.088 272.005 221.721 272.005 221.721C272.005 221.721 263.061 224.556 256.59 227.825C194.35 239.939 74.1127 234.304 108.727 221.913C138.001 211.442 161.803 212.63 161.803 212.63H161.802ZM271.752 258.108C335.023 233.779 305.769 210.398 285.35 213.549C280.345 214.319 278.114 214.987 278.114 214.987C278.114 214.987 279.972 212.833 283.52 211.901C323.915 201.392 354.981 242.896 270.48 259.334C270.48 259.335 271.46 258.687 271.752 258.108Z" fill="#5382A1"/>
<path d="M233.607 75.2683C233.607 75.2683 268.647 101.208 200.373 141.093C145.625 173.088 187.888 191.331 200.35 212.174C168.392 190.838 144.939 172.055 160.674 154.573C183.767 128.911 247.744 116.469 233.607 75.2676" fill="#E76F00"/>
<path d="M168.021 324.035C228.753 326.912 322.012 322.439 324.221 301.174C324.221 301.174 319.976 309.236 274.03 315.638C222.194 322.856 158.263 322.013 120.344 317.387C120.345 317.387 128.106 322.141 168.022 324.035" fill="#5382A1"/>
</svg>
