<svg width="400" height="400" viewBox="0 0 400 400" fill="none" xmlns="http://www.w3.org/2000/svg">
<path d="M75 75H325V325H75V75Z" fill="#F7DF1E"/>
<path d="M140.735 283.918L159.866 272.34C163.558 278.884 166.915 284.421 174.969 284.421C182.688 284.421 187.557 281.401 187.557 269.655V189.774H211.05V269.987C211.05 294.32 196.786 305.396 175.976 305.396C157.182 305.396 146.272 295.663 140.734 283.916L140.735 283.918ZM223.811 281.4L242.939 270.325C247.976 278.549 254.521 284.59 266.099 284.59C275.834 284.59 282.041 279.723 282.041 273.01C282.041 264.955 275.664 262.102 264.924 257.404L259.052 254.885C242.102 247.671 230.858 238.608 230.858 219.478C230.858 201.856 244.283 188.431 265.261 188.431C280.196 188.431 290.937 193.634 298.655 207.227L280.362 218.975C276.334 211.759 271.973 208.906 265.26 208.906C258.379 208.906 254.016 213.27 254.016 218.975C254.016 226.022 258.379 228.877 268.447 233.24L274.32 235.757C294.291 244.316 305.534 253.042 305.534 272.675C305.534 293.821 288.921 305.399 266.602 305.399C244.786 305.399 230.689 294.995 223.81 281.401" fill="black"/>
</svg>
