<svg width="400" height="400" viewBox="0 0 400 400" fill="none" xmlns="http://www.w3.org/2000/svg">
<path d="M80.062 153.785C75.7275 116.864 66.6932 107.035 64.3886 100.086C63.4383 97.0256 62.5964 93.844 61.8688 90.5635C61.7471 93.8435 61.5234 95.9099 60.0795 98.3972C57.1804 103.388 44.8676 122.762 43.8314 164.713C42.8659 203.827 58.7234 227.946 60.8185 230.439C62.4294 231.97 64.3914 230.472 65.3483 229.067C72.9925 218.937 83.4368 191.932 80.0705 153.785" fill="#10AA50"/>
<path d="M62.5249 209.611C62.1257 219.293 61.8397 224.918 60.8262 230.45C60.8262 230.45 61.4915 239.667 61.9586 249.43H63.6121C64.0065 242.555 64.6086 235.73 65.4155 228.991C63.2751 226.957 62.607 218.107 62.5249 209.611Z" fill="#B8C4C2"/>
<path d="M65.4137 228.996C63.2507 227.066 62.625 218.03 62.5288 209.611C63.0637 195.724 63.2196 181.792 62.9959 167.873C62.8827 160.57 63.0497 100.229 62.0645 91.3945C62.7384 94.3866 63.5149 97.2885 64.3889 100.081C66.6934 107.035 75.7306 116.864 80.0623 153.786C83.437 191.866 73.0494 218.801 65.4137 228.996Z" fill="#12924F"/>
<path d="M350.515 215.646C349.589 215.646 348.683 215.117 347.912 214.126C347.141 213.135 346.539 211.726 346.182 210.076C345.825 208.426 345.728 206.609 345.904 204.853C346.08 203.098 346.521 201.482 347.171 200.208C347.822 198.935 348.652 198.062 349.559 197.698C350.466 197.334 351.408 197.495 352.268 198.163C353.127 198.83 353.865 199.973 354.389 201.447C354.913 202.922 355.199 204.663 355.212 206.451C355.229 207.657 355.119 208.857 354.89 209.979C354.661 211.101 354.316 212.122 353.878 212.981C353.439 213.839 352.915 214.518 352.337 214.976C351.759 215.434 351.139 215.662 350.515 215.646V215.646ZM350.515 198.328C349.669 198.317 348.84 198.791 348.133 199.691C347.427 200.59 346.874 201.874 346.546 203.38C346.218 204.887 346.129 206.547 346.289 208.151C346.45 209.755 346.854 211.231 347.45 212.392C348.045 213.553 348.806 214.346 349.635 214.672C350.464 214.997 351.325 214.84 352.108 214.22C352.891 213.6 353.561 212.546 354.034 211.19C354.506 209.834 354.759 208.238 354.762 206.604C354.773 205.518 354.671 204.439 354.462 203.43C354.253 202.421 353.941 201.504 353.545 200.732C353.149 199.96 352.676 199.35 352.156 198.937C351.636 198.524 351.077 198.317 350.515 198.328V198.328ZM351.647 212.312L350.436 207.266H349.459V212.312H348.748V200.832H350.501C351.806 200.832 352.349 201.925 352.349 204.04C352.349 205.724 351.939 206.774 351.174 207.096L352.426 212.295L351.647 212.312ZM349.487 206.08H350.515C351.347 206.08 351.664 205.533 351.664 204.068C351.664 202.603 351.361 202.105 350.424 202.105H349.487V206.08Z" fill="#21313C"/>
<path d="M280.609 207.382C281.881 209.344 284.42 210.153 286.66 210.153C289.562 210.153 292.407 209.115 295.187 204.266C298.018 199.297 299.966 191.692 299.966 179.551C299.966 167.885 297.667 158.417 292.951 152.874C290.289 149.643 286.841 148.369 282.908 148.369C281.776 148.369 280.609 148.484 279.947 149.063C279.675 149.477 279.483 150.055 279.401 150.703C279.282 152.781 279.282 168.601 279.282 177.955C279.282 187.543 279.282 200.915 279.401 202.555C279.463 203.943 279.825 206.381 280.609 207.404V207.382ZM268.537 143.176C269.565 143.176 273.472 143.52 275.29 143.52C278.687 143.52 281.034 143.176 287.384 143.176C292.707 143.176 297.186 145.947 300.388 151.256C304.261 157.728 306.334 166.732 306.334 177.703C306.334 193.294 302.653 202.303 298.953 207.382C295.272 212.695 290.485 215.697 283.664 215.697C280.035 215.697 273.803 215.467 268.602 215.352H268.495C268.251 214.428 268.939 210.826 269.364 210.733C270.78 210.427 271.153 210.317 271.804 209.798C272.903 208.929 273.161 207.846 273.282 204.036C273.464 196.875 273.404 188.33 273.404 178.627C273.404 171.701 273.464 158.187 273.345 153.912C273.161 150.337 272.379 149.413 270.797 148.719C269.674 148.259 268.54 147.912 267.399 147.68C267.28 146.986 268.209 143.854 268.512 143.176" fill="#21313C"/>
<path d="M321.324 149.035C321.084 149.15 320.781 150.309 320.781 150.883C320.719 155.043 320.659 165.894 320.659 173.4C320.674 173.543 320.711 173.675 320.765 173.778C320.819 173.881 320.888 173.951 320.962 173.979C321.746 174.094 323.683 174.214 325.316 174.214C327.615 174.214 328.946 173.635 329.671 172.941C331.607 171.093 332.502 167.048 332.502 162.663C332.502 152.616 328.872 148.805 323.49 148.805C322.763 148.788 322.035 148.864 321.313 149.035H321.324ZM335.044 195.228C335.044 185.066 331.171 179.293 324.093 179.293C323.793 179.293 321.545 179.178 321.01 179.408C320.829 179.523 320.648 179.752 320.648 179.987C320.648 187.263 320.585 198.924 320.77 203.543C320.891 205.506 321.619 208.277 322.522 209.086C323.49 210.125 325.667 210.355 327.179 210.355C331.352 210.355 335.044 205.855 335.044 195.228V195.228ZM310.396 143.377C310.942 143.377 312.551 143.721 316.664 143.721C320.535 143.721 323.68 143.492 327.423 143.492C332.08 143.492 338.49 146.728 338.49 160.121C338.49 166.681 336.072 172.017 332.927 174.559C332.745 174.674 332.745 174.903 332.927 175.018C337.403 177.205 341.332 182.524 341.332 192.686C341.332 202.619 338.127 208.857 333.47 212.782C330.639 215.209 327.12 216.013 323.561 216.013C320.84 216.013 313.547 215.466 309.493 215.553C309.068 215.209 309.881 211.508 310.243 210.934C311.172 210.879 312.094 210.6 312.987 210.103C314.436 209.414 314.609 208.512 314.79 204.352C314.912 200.771 314.912 187.952 314.912 178.828C314.912 166.353 314.974 157.929 314.912 153.769C314.852 150.538 314.246 149.494 313.097 148.92C312.191 148.57 310.679 148.226 309.47 147.881C309.167 147.302 310.099 143.836 310.399 143.377" fill="#21313C"/>
<path d="M93.4574 215.647C93.3016 214.908 93.2385 214.108 93.2733 213.313C93.2598 212.771 93.3234 212.232 93.4574 211.755C94.2397 211.537 95.0148 211.232 95.7789 210.842C96.8491 210.328 97.2512 209.202 97.3134 206.567C97.489 200.34 97.5003 188.658 97.438 180.447V180.206C97.438 179.321 97.438 178.118 96.8718 177.271C95.8766 176.065 94.7961 175.145 93.664 174.538C93.1573 174.248 92.877 173.734 92.8911 173.133C92.9053 172.531 93.2252 171.821 93.8849 171.569C95.6374 171.225 100.23 169.109 102.033 167.502C102.219 167.969 102.305 168.556 102.274 169.142C102.274 169.503 102.245 169.885 102.226 170.279C102.175 171.438 102.118 172.755 102.118 174.067C102.129 174.227 102.163 174.377 102.216 174.501C102.269 174.625 102.339 174.719 102.417 174.77C102.496 174.822 102.581 174.83 102.662 174.794C102.743 174.758 102.818 174.678 102.877 174.565C106.311 169.366 109.388 167.513 110.965 167.513C113.562 167.513 115.583 169.907 117.149 174.838C117.185 174.957 117.236 175.056 117.297 175.126C117.359 175.196 117.428 175.234 117.5 175.237C117.565 175.236 117.628 175.205 117.686 175.146C117.743 175.087 117.792 175.002 117.828 174.898C120.985 170.274 124.113 167.513 126.208 167.513C131.157 167.513 134.116 174.669 134.116 186.646C134.116 190.09 134.099 194.458 134.082 198.531C134.068 202.106 134.054 205.457 134.054 207.775C134.054 208.322 134.444 209.896 135.03 210.208C135.755 210.891 136.8 211.241 138.122 211.678H138.173C138.272 212.367 138.063 215.04 137.862 215.587C137.533 215.587 137.08 215.532 136.514 215.477C135.486 215.379 134.076 215.242 132.437 215.242C129.147 215.242 127.429 215.363 125.787 215.57C125.662 214.778 125.62 212.219 125.77 211.684C126.45 211.478 127.123 211.195 127.785 210.836C128.833 210.169 129.136 209.251 129.201 206.567C129.227 204.659 129.416 187.849 129.079 183.858C128.768 179.72 127.154 174.876 123.624 174.876C122.313 174.876 120.198 175.932 118.182 178.884C118.057 179.157 117.987 179.508 117.984 179.873V179.955C118.222 182.109 118.222 184.624 118.222 188.423C118.222 190.61 118.222 192.889 118.208 195.169C118.193 199.804 118.182 204.178 118.222 207.485C118.222 209.737 118.927 210.279 119.496 210.71C119.804 210.842 120.048 210.956 120.294 211.066C120.767 211.29 121.26 211.52 121.993 211.744C122.101 212.704 122.092 213.7 121.965 214.652C121.935 215.009 121.862 215.348 121.752 215.641C119.923 215.521 118.046 215.417 115.337 215.417C114.516 215.417 113.177 215.483 111.993 215.543C111.033 215.592 110.127 215.641 109.612 215.647C109.473 215.012 109.411 214.324 109.431 213.635C109.402 212.986 109.468 212.335 109.621 211.755L110.348 211.498C110.982 211.279 111.532 211.093 112.047 210.842C112.942 210.295 113.278 209.355 113.344 207.152C113.519 202.013 113.655 187.204 113.278 183.497C112.639 177.55 110.886 174.532 108.066 174.532C106.416 174.532 104.329 176.068 102.625 178.534C102.461 178.842 102.332 179.212 102.245 179.622C102.159 180.031 102.118 180.47 102.124 180.912C102.124 182.677 102.124 184.777 102.124 187.029C102.124 194.464 102.098 203.719 102.192 207.72C102.248 208.956 102.475 210.421 103.672 210.956C103.936 211.104 104.389 211.246 104.915 211.416C105.218 211.514 105.549 211.618 105.892 211.738C106.001 213.047 105.945 214.388 105.731 215.647C105.204 215.647 104.556 215.581 103.814 215.521C102.681 215.423 101.266 215.302 99.6662 215.302C97.7749 215.302 96.4584 215.423 95.4024 215.521C94.6918 215.587 94.0774 215.641 93.463 215.647" fill="#21313C"/>
<path d="M154.172 172.455C153.15 172.414 152.145 172.96 151.284 174.024C149.184 176.489 148.113 181.415 148.113 188.653C148.113 202.199 151.627 211.662 156.658 211.662C158.007 211.744 159.323 210.845 160.344 209.142C161.89 206.709 162.711 201.734 162.711 194.77C162.711 181.426 159.277 172.455 154.166 172.455H154.172ZM155.135 216.686C146.047 216.686 142.811 203.812 142.811 191.769C142.811 183.356 144.591 176.779 148.105 172.214C150.566 169.273 153.39 167.661 156.284 167.546C163.218 167.546 168.062 177.173 168.062 190.965C168.062 200.335 166.128 207.737 162.467 212.362C160.709 214.439 157.654 216.686 155.135 216.686" fill="#21313C"/>
<path d="M246.694 172.455C245.67 172.41 244.662 172.956 243.8 174.024C241.7 176.489 240.629 181.415 240.629 188.653C240.629 202.199 244.143 211.662 249.174 211.662C250.527 211.75 251.847 210.85 252.871 209.142C254.417 206.709 255.235 201.734 255.235 194.77C255.235 181.426 251.804 172.455 246.694 172.455V172.455ZM247.662 216.686C238.574 216.686 235.338 203.812 235.338 191.774C235.338 183.35 237.119 176.779 240.635 172.214C243.094 169.271 245.919 167.659 248.811 167.546C255.745 167.546 260.589 177.178 260.589 190.96C260.589 200.34 258.656 207.737 254.995 212.356C253.237 214.439 250.182 216.686 247.662 216.686" fill="#21313C"/>
<path d="M216.095 171.996C213.295 171.996 211.483 176.265 211.483 182.874C211.483 189.483 213.043 197.339 217.429 197.339C218.182 197.339 219.546 196.694 220.223 195.256C221.242 193.447 221.922 189.708 221.922 185.761C221.922 177.14 219.747 171.996 216.109 171.996H216.095ZM215.747 217.609C214.956 217.593 214.176 217.969 213.482 218.703C211.265 221.436 210.237 224.169 210.237 227.346C210.237 230.319 210.835 232.686 212.12 234.786C213.677 237.333 215.778 238.574 218.538 238.574C223.972 238.574 226.406 232.932 226.406 227.346C226.406 223.453 225.396 220.846 223.315 219.37C221.712 218.238 219.034 217.615 215.755 217.615L215.747 217.609ZM216.118 244.402C212.856 244.402 210.506 243.073 208.499 240.088C206.546 237.18 205.668 232.861 205.668 229.877C205.689 227.953 206.069 226.109 206.738 224.683C207.304 223.437 208.621 221.103 211.664 217.063C211.712 217.024 211.752 216.959 211.78 216.877C211.808 216.794 211.823 216.697 211.823 216.598C211.824 216.488 211.805 216.38 211.77 216.292C211.735 216.205 211.686 216.143 211.63 216.117C209.125 214.264 208.369 211.197 208.14 209.557C208.14 209.497 208.14 209.404 208.114 209.3C208.043 208.655 207.975 208.043 208.431 207.414C208.782 206.933 209.343 206.288 209.943 205.605C210.79 204.699 211.603 203.678 212.375 202.549C212.417 202.463 212.447 202.359 212.465 202.247C212.483 202.134 212.487 202.015 212.477 201.899C212.467 201.783 212.443 201.673 212.408 201.577C212.373 201.481 212.327 201.402 212.273 201.346C208.564 198.941 206.696 193.622 206.696 185.493C206.684 182.958 206.99 180.455 207.586 178.197C208.182 175.939 209.052 173.991 210.121 172.52C211.613 170.241 215.359 167.502 217.785 167.502H217.927C220.421 167.617 221.828 168.628 223.776 170.017C224.884 170.79 226.058 171.15 227.236 171.077C229.3 171.077 230.203 169.814 230.979 168.344C231.104 169.006 231.171 169.705 231.177 170.41C231.224 172.091 230.988 173.756 230.503 175.155C230.081 176.287 229.087 177.107 228.179 177.107C228.085 177.107 227.995 177.107 227.896 177.08C227.417 177.015 226.943 176.863 226.48 176.626L226.248 176.784C226.174 176.992 226.222 177.222 226.282 177.517C226.296 177.575 226.308 177.635 226.316 177.697C226.481 179.156 226.594 180.636 226.653 182.125C226.653 190.626 224.917 194.327 223.04 197.071C221.225 199.7 219.07 201.312 216.811 201.729V201.729C216.763 201.729 216.528 201.767 216.087 201.844C215.804 201.893 215.436 201.958 215.382 201.958H215.328C214.92 202.177 213.856 203.156 213.856 204.976C213.856 206.485 214.337 208.36 216.639 208.699L218.128 208.901C221.163 209.311 224.954 209.819 226.738 210.984C227.921 211.787 228.943 213.29 229.658 215.28C230.373 217.269 230.745 219.643 230.721 222.065C230.721 229.691 227.912 236.863 223.21 241.247C220.992 243.293 218.564 244.345 216.107 244.325" fill="#21313C"/>
<path d="M202.205 211.58C200.874 211.235 199.903 210.885 198.756 209.847C198.531 209.397 198.383 208.824 198.332 208.207C198.21 204.626 198.21 194.234 198.21 187.433C198.21 181.885 197.729 177.047 196.511 173.575C195.059 169.645 193.004 167.338 190.342 167.338C187.984 167.338 184.838 170.454 182.239 174.729C182.177 174.844 181.778 175.576 181.786 174.439C181.795 173.302 181.885 170.995 181.942 169.519C181.967 169.127 181.945 168.729 181.876 168.357C181.807 167.985 181.694 167.649 181.546 167.376C179.847 169.016 175.082 171.203 173.318 171.536C172.033 172.017 171.707 174.406 173.081 175.232H173.1C174.199 175.817 175.249 176.708 176.215 177.878C176.758 178.687 176.699 179.84 176.699 180.764C176.758 188.499 176.758 200.395 176.577 206.862C176.518 209.404 176.152 210.328 175.184 210.792L175.275 210.732C174.537 211.089 173.789 211.359 173.035 211.541C172.732 212.115 172.732 215.466 173.035 216.161C173.641 216.161 176.716 215.816 179.264 215.816C182.769 215.816 184.584 216.161 185.492 216.161C185.858 215.352 185.977 212.236 185.736 211.541C184.898 211.468 184.067 211.236 183.253 210.847C182.288 210.388 182.044 209.459 181.985 207.387C181.866 201.953 181.866 190.407 181.866 182.552C181.866 180.365 182.166 179.321 182.528 178.725C183.737 176.648 185.736 175.265 187.488 175.265C189.187 175.265 190.32 176.303 191.169 177.686C192.158 179.353 192.778 181.689 192.902 184.213C193.142 188.587 193.08 197.383 193.08 204.987C193.08 209.147 192.902 210.191 192.115 210.65C191.752 210.995 190.784 211.345 189.634 211.574C189.272 212.268 189.391 215.499 189.634 216.193C191.206 216.193 193.032 215.849 195.682 215.849C199.008 215.849 201.126 216.193 201.973 216.193C202.335 215.384 202.457 212.367 202.216 211.574" fill="#21313C"/>
</svg>
