<svg width="400" height="400" viewBox="0 0 400 400" fill="none" xmlns="http://www.w3.org/2000/svg">
<g clip-path="url(#clip0)">
<path d="M91.0766 200.179V140.515C91.0181 139.464 91.2727 138.42 91.8082 137.515C92.3436 136.61 93.1359 135.883 94.0844 135.429L196.998 75.9913C198.85 74.835 200.928 74.6006 202.78 75.7569L306.155 135.421C307.041 135.931 307.769 136.676 308.258 137.573C308.748 138.471 308.979 139.486 308.928 140.507V259.608C308.979 260.629 308.748 261.645 308.258 262.542C307.769 263.44 307.041 264.185 306.155 264.694L217.35 316.023C212.697 318.807 207.993 321.506 203.241 324.116C201.163 325.273 199.077 325.273 196.991 324.116L93.85 264.679C91.9985 263.523 91.0766 262.132 91.0766 259.819V200.155V200.179Z" fill="#009438"/>
<path d="M163.924 177.968V247.5C163.924 255.359 157.674 262.297 149.354 262.07C144.275 261.836 140.338 259.757 137.635 255.367C136.244 253.289 135.783 250.976 135.783 248.429V151.843C135.783 145.359 139.713 140.75 144.799 138.664C149.885 136.578 154.971 137.047 160.064 138.664C164.924 140.054 168.619 143.054 171.783 146.757L233.299 220.531C233.533 220.765 233.768 221.234 234.221 221.687V151.375C234.221 143.976 239.299 138.195 246.486 137.5C255.502 136.343 261.518 142.812 262.439 149.531V247.968C262.439 253.437 259.893 257.453 255.268 260C251.799 261.851 248.096 262.312 244.174 262.078C238.501 261.7 233.122 259.418 228.908 255.601C226.596 253.523 224.979 250.976 222.893 248.664L164.377 178.586C164.377 178.351 164.143 178.117 163.908 177.882L163.924 177.968Z" fill="#FEFEFE"/>
</g>
<defs>
<clipPath id="clip0">
<rect width="250" height="250" fill="white" transform="translate(75 75)"/>
</clipPath>
</defs>
</svg>
