<svg width="400" height="400" viewBox="0 0 400 400" fill="none" xmlns="http://www.w3.org/2000/svg">
<path d="M188.748 78.1741C195.545 74.6413 204.398 74.6254 211.19 78.1741C245.357 95.7043 279.535 113.207 313.697 130.748C320.122 134.034 324.42 140.527 324.355 147.249V252.718C324.402 259.718 319.68 266.367 312.901 269.578C278.846 287.012 244.809 304.467 210.759 321.9C203.821 325.502 194.79 325.225 188.069 321.327C177.859 315.953 167.632 310.606 157.421 305.237C155.335 304.108 152.983 303.209 151.51 301.372C152.812 299.778 155.141 299.579 157.033 298.883C161.295 297.653 165.209 295.678 169.124 293.761C170.114 293.146 171.323 293.382 172.272 293.932C181.002 298.477 189.656 303.155 198.415 307.656C200.284 308.636 202.176 307.335 203.774 306.527C237.192 289.377 270.652 272.292 304.064 255.137C305.302 254.596 305.987 253.403 305.886 252.171C305.909 217.38 305.892 182.582 305.898 147.79C306.039 146.393 305.149 145.109 303.758 144.537C269.821 127.183 235.901 109.803 201.97 92.4445C201.382 92.0776 200.686 91.8807 199.973 91.8797C199.259 91.8788 198.562 92.0738 197.973 92.4392C164.042 109.803 130.129 127.199 96.1975 144.552C94.8111 145.124 93.8806 146.388 94.0456 147.79C94.0515 182.582 94.0456 217.38 94.0456 252.177C93.9868 252.778 94.1321 253.38 94.462 253.904C94.792 254.427 95.2907 254.847 95.8909 255.105C104.946 259.767 114.012 264.397 123.072 269.043C128.177 271.538 134.444 273.02 140.068 271.109C145.031 269.492 148.509 264.894 148.415 260.109C148.461 225.521 148.391 190.927 148.45 156.343C148.326 154.808 149.93 153.539 151.574 153.684C155.925 153.657 160.281 153.631 164.632 153.695C166.448 153.657 167.697 155.311 167.473 156.858C167.455 191.665 167.52 226.474 167.444 261.281C167.455 270.558 163.258 280.652 153.808 285.191C142.166 290.667 127.777 289.506 116.275 284.255C106.318 279.742 96.8165 274.417 87.0364 269.583C80.2401 266.389 75.5409 259.714 75.5887 252.718V147.249C75.5175 140.388 79.9862 133.777 86.6117 130.539C120.661 113.091 154.704 95.6298 188.748 78.1741Z" fill="#8CC84B"/>
<path d="M218.453 151.232C233.303 150.365 249.201 150.718 262.565 157.361C272.911 162.451 278.647 173.135 278.83 183.572C278.541 184.98 276.92 185.756 275.44 185.66C271.131 185.654 266.821 185.713 262.513 185.633C260.685 185.697 259.623 184.167 259.393 182.7C258.155 177.706 255.156 172.76 249.979 170.351C242.033 166.739 232.819 166.92 224.154 166.996C217.828 167.301 211.026 167.798 205.667 171.176C201.552 173.734 200.303 178.899 201.771 183.059C203.156 186.045 206.953 187.009 210.059 187.897C227.956 192.147 246.92 191.724 264.475 197.318C271.743 199.598 278.853 204.03 281.341 210.94C284.595 220.201 283.168 231.27 275.912 238.704C270.028 244.822 261.457 248.152 252.909 249.96C241.538 252.263 229.737 252.321 218.188 251.299C207.33 250.175 196.029 247.584 187.646 240.866C180.478 235.215 176.977 226.409 177.324 217.91C177.407 216.474 178.981 215.474 180.496 215.591C184.834 215.56 189.173 215.549 193.512 215.597C195.245 215.484 196.53 216.844 196.619 218.327C197.42 223.085 199.389 228.079 203.958 230.9C212.777 236.066 223.842 235.712 233.939 235.857C242.304 235.52 251.695 235.418 258.521 230.397C262.123 227.534 263.19 222.743 262.217 218.622C261.163 215.142 257.154 213.521 253.711 212.46C236.044 207.386 216.867 209.227 199.371 203.489C192.268 201.209 185.4 196.9 182.671 190.274C178.863 180.896 180.608 169.297 188.625 162.114C196.441 154.968 207.725 152.216 218.453 151.232V151.232Z" fill="#8CC84B"/>
</svg>
