<svg width="400" height="400" viewBox="0 0 400 400" fill="none" xmlns="http://www.w3.org/2000/svg">
<g clip-path="url(#clip0)">
<path d="M199.099 75C135.633 75 139.596 102.667 139.596 102.667L139.667 131.329H200.231V139.935H115.612C115.612 139.935 75 135.305 75 199.677C75 264.05 110.447 261.767 110.447 261.767H131.602V231.896C131.602 231.896 130.461 196.263 166.482 196.263C202.503 196.263 226.551 196.263 226.551 196.263C226.551 196.263 260.299 196.812 260.299 163.476C260.299 130.14 260.299 108.356 260.299 108.356C260.299 108.356 265.423 75 199.099 75ZM165.704 94.2741C171.73 94.2741 176.6 99.1698 176.6 105.227C176.6 111.284 171.73 116.18 165.704 116.18C159.678 116.18 154.808 111.284 154.808 105.227C154.808 99.1698 159.678 94.2741 165.704 94.2741Z" fill="url(#paint0_linear)"/>
<path d="M200.902 325C264.367 325 260.404 297.333 260.404 297.333L260.333 268.671H199.77V260.065H284.389C284.389 260.065 325 264.695 325 200.322C325 135.95 289.554 138.233 289.554 138.233H268.399V168.104C268.399 168.104 269.539 203.736 233.518 203.736C197.497 203.736 173.45 203.736 173.45 203.736C173.45 203.736 139.701 203.188 139.701 236.524C139.701 269.859 139.701 291.643 139.701 291.643C139.701 291.643 134.577 325 200.902 325ZM234.296 305.726C228.271 305.726 223.401 300.83 223.401 294.773C223.401 288.716 228.271 283.82 234.296 283.82C240.322 283.82 245.192 288.716 245.192 294.773C245.192 300.83 240.322 305.726 234.296 305.726Z" fill="url(#paint1_linear)"/>
</g>
<defs>
<linearGradient id="paint0_linear" x1="99.0255" y1="96.8522" x2="223.291" y2="220.884" gradientUnits="userSpaceOnUse">
<stop stop-color="#387EB8"/>
<stop offset="1" stop-color="#366994"/>
</linearGradient>
<linearGradient id="paint1_linear" x1="175.07" y1="176.168" x2="308.499" y2="303.334" gradientUnits="userSpaceOnUse">
<stop stop-color="#FFE052"/>
<stop offset="1" stop-color="#FFC331"/>
</linearGradient>
<clipPath id="clip0">
<rect width="250" height="250" fill="white" transform="translate(75 75)"/>
</clipPath>
</defs>
</svg>
