<svg width="400" height="400" viewBox="0 0 400 400" fill="none" xmlns="http://www.w3.org/2000/svg">
<path d="M271.784 161.216C269.42 160.315 267.037 159.48 264.636 158.712C265.034 156.912 265.403 155.104 265.741 153.29C271.151 124.079 267.613 100.547 255.534 92.801C243.952 85.3716 225.009 93.118 205.878 111.635C203.993 113.463 202.15 115.345 200.35 117.277C199.145 115.992 197.919 114.732 196.672 113.498C176.622 93.6972 156.525 85.3542 144.458 93.1234C132.887 100.574 129.46 122.697 134.33 150.379C134.815 153.121 135.362 155.848 135.971 158.559C133.128 159.457 130.381 160.414 127.754 161.433C104.248 170.547 89.2363 184.834 89.2363 199.651C89.2363 214.956 105.351 230.306 129.835 239.613C131.82 240.364 133.822 241.06 135.839 241.701C135.183 244.621 134.602 247.561 134.094 250.517C129.451 277.719 133.077 299.317 144.618 306.721C156.538 314.366 176.543 306.508 196.024 287.569C197.564 286.072 199.109 284.484 200.657 282.819C202.606 284.911 204.608 286.942 206.659 288.91C225.528 306.97 244.164 314.262 255.695 306.838C267.604 299.171 271.473 275.968 266.448 247.738C266.065 245.581 265.618 243.379 265.117 241.137C266.522 240.675 267.9 240.199 269.246 239.703C294.699 230.324 311.258 215.16 311.258 199.651C311.258 184.78 295.763 170.398 271.784 161.216V161.216Z" fill="#53C1DE"/>
<path d="M266.263 229.69C265.049 230.137 263.803 230.568 262.534 230.987C259.724 221.093 255.931 210.572 251.291 199.703C255.72 189.091 259.365 178.706 262.097 168.875C264.367 169.607 266.572 170.378 268.697 171.192C289.243 179.058 301.775 190.689 301.775 199.651C301.775 209.197 288.239 221.59 266.264 229.69H266.263ZM257.144 249.787C259.366 262.27 259.683 273.556 258.212 282.379C256.889 290.306 254.23 295.591 250.942 297.708C243.945 302.213 228.981 296.358 212.845 280.913C210.995 279.142 209.131 277.252 207.262 275.252C213.518 267.641 219.771 258.793 225.873 248.968C236.606 247.909 246.747 246.177 255.943 243.813C256.395 245.846 256.798 247.838 257.144 249.787V249.787ZM164.928 296.93C158.093 299.615 152.648 299.692 149.357 297.582C142.354 293.09 139.443 275.746 143.414 252.484C143.886 249.735 144.427 247.001 145.035 244.285C154.129 246.522 164.195 248.132 174.955 249.102C181.097 258.717 187.53 267.554 194.013 275.292C192.635 276.775 191.225 278.219 189.783 279.624C181.169 288 172.537 293.941 164.929 296.93H164.928ZM132.903 229.631C122.077 225.515 113.136 220.166 107.008 214.33C101.501 209.084 98.7207 203.877 98.7207 199.651C98.7207 190.66 110.774 179.19 130.877 171.394C133.4 170.42 135.948 169.528 138.518 168.72C141.297 178.771 144.942 189.28 149.34 199.908C144.885 210.693 141.188 221.37 138.384 231.539C136.543 230.953 134.716 230.317 132.903 229.631V229.631ZM143.639 148.353C139.466 124.634 142.237 106.743 149.21 102.253C156.638 97.4708 173.062 104.29 190.374 121.386C191.48 122.479 192.591 123.623 193.705 124.807C187.255 132.511 180.881 141.281 174.792 150.839C164.35 151.916 154.354 153.645 145.165 155.961C144.599 153.439 144.09 150.902 143.639 148.352V148.353ZM239.409 174.655C237.238 170.486 234.987 166.368 232.657 162.306C239.742 163.3 246.529 164.623 252.902 166.241C250.989 173.062 248.604 180.194 245.796 187.506C243.744 183.175 241.614 178.891 239.409 174.655V174.655ZM200.354 132.346C204.728 137.617 209.11 143.503 213.419 149.889C204.677 149.429 195.92 149.427 187.178 149.882C191.492 143.555 195.91 137.678 200.354 132.346V132.346ZM161.048 174.728C158.87 178.93 156.781 183.187 154.781 187.498C152.019 180.212 149.656 173.048 147.726 166.13C154.061 164.553 160.816 163.264 167.855 162.286C165.499 166.374 163.229 170.522 161.048 174.728V174.728ZM168.057 237.768C160.786 236.866 153.928 235.643 147.596 234.109C149.556 227.069 151.971 219.751 154.792 212.308C156.8 216.622 158.899 220.883 161.087 225.086C163.319 229.375 165.643 233.603 168.057 237.768V237.768ZM200.616 267.701C196.121 262.306 191.637 256.338 187.258 249.92C191.509 250.106 195.843 250.2 200.248 250.2C204.773 250.2 209.247 250.087 213.65 249.869C209.327 256.404 204.961 262.38 200.616 267.701ZM245.886 211.929C248.853 219.453 251.355 226.731 253.342 233.652C246.904 235.286 239.954 236.602 232.631 237.579C234.978 233.441 237.25 229.252 239.447 225.013C241.68 220.706 243.827 216.343 245.886 211.929V211.929ZM231.231 219.743C227.867 226.242 224.315 232.616 220.579 238.858C213.992 239.381 207.185 239.651 200.248 239.651C193.339 239.651 186.618 239.412 180.146 238.945C176.313 232.718 172.694 226.332 169.295 219.801C165.912 213.305 162.753 206.668 159.823 199.904C162.745 193.139 165.895 186.498 169.267 179.996V179.999C172.637 173.495 176.228 167.137 180.032 160.937C186.635 160.381 193.405 160.091 200.249 160.091C207.123 160.091 213.902 160.384 220.503 160.943C224.268 167.134 227.836 173.47 231.2 179.941C234.583 186.428 237.775 193.036 240.772 199.755C237.806 206.541 234.624 213.209 231.232 219.743H231.231ZM250.797 101.94C258.231 106.709 261.123 125.94 256.452 151.161C256.146 152.804 255.813 154.44 255.453 156.07C246.243 153.706 236.24 151.947 225.767 150.854C219.667 141.191 213.346 132.406 207 124.802C208.663 123.019 210.365 121.282 212.106 119.593C228.497 103.726 243.817 97.462 250.797 101.94V101.94Z" fill="white"/>
<path d="M200.248 177.601C211.198 177.601 220.073 187.474 220.073 199.652C220.073 211.831 211.198 221.704 200.248 221.704C189.299 221.704 180.422 211.831 180.422 199.652C180.422 187.474 189.299 177.601 200.248 177.601" fill="#53C1DE"/>
</svg>
