<svg width="400" height="400" viewBox="0 0 400 400" fill="none" xmlns="http://www.w3.org/2000/svg">
<path d="M75 200V325H200H325V200V75H200H75V200Z" fill="#007ACC"/>
<path d="M130.285 200.829L130.206 211.067H146.475H162.745V257.297V303.527H174.253H185.761V257.297V211.067H202.031H218.301V201.027C218.301 195.472 218.182 190.829 218.023 190.71C217.904 190.551 198.102 190.472 174.094 190.511L130.404 190.631L130.285 200.829Z" fill="white"/>
<path d="M276.724 190.34C283.073 191.928 287.915 194.745 292.359 199.348C294.661 201.809 298.073 206.293 298.351 207.364C298.431 207.682 287.558 214.983 280.97 219.07C280.732 219.229 279.78 218.197 278.708 216.61C275.494 211.928 272.121 209.904 266.962 209.547C259.383 209.031 254.502 212.999 254.542 219.626C254.542 221.57 254.819 222.721 255.613 224.309C257.28 227.761 260.375 229.824 270.097 234.031C287.994 241.729 295.653 246.809 300.415 254.031C305.732 262.086 306.923 274.944 303.312 284.507C299.343 294.904 289.502 301.967 275.653 304.309C271.367 305.063 261.208 304.944 256.605 304.11C246.566 302.324 237.042 297.364 231.169 290.856C228.867 288.317 224.383 281.69 224.661 281.213C224.78 281.055 225.812 280.42 226.962 279.745C228.073 279.11 232.28 276.69 236.248 274.388L243.431 270.221L244.939 272.443C247.042 275.658 251.645 280.063 254.423 281.531C262.399 285.737 273.351 285.142 278.748 280.301C281.05 278.197 282.002 276.015 282.002 272.801C282.002 269.904 281.645 268.634 280.137 266.451C278.193 263.674 274.224 261.332 262.954 256.451C250.058 250.896 244.502 247.444 239.423 241.967C236.486 238.793 233.708 233.713 232.558 229.467C231.605 225.936 231.367 217.086 232.121 213.515C234.78 201.055 244.185 192.364 257.756 189.785C262.161 188.951 272.399 189.269 276.724 190.34Z" fill="white"/>
</svg>
